<svg width="82" height="82" viewBox="0 0 82 82" fill="none" xmlns="http://www.w3.org/2000/svg">
<rect width="82" height="82" rx="41" fill="#27AE60"/>
<path d="M52.2751 54.3036C52.1711 54.1886 51.83 53.9458 51.2519 53.5753C50.6738 53.2048 50.0085 52.7896 49.2561 52.3297C48.5036 51.8697 48.0745 51.602 47.9689 51.5265C47.9208 51.494 47.7698 51.3787 47.5159 51.1807C47.262 50.9826 47.0481 50.8339 46.8741 50.7346C46.7002 50.6353 46.5291 50.5857 46.361 50.5858C46.0743 50.5789 45.7459 50.7429 45.3758 51.0777C45.1393 51.2916 44.8054 51.6458 44.3741 52.1404C43.9428 52.635 43.6038 52.9939 43.357 53.2171C43.0074 53.5333 42.7138 53.6943 42.4761 53.7002C42.3671 53.7037 42.2372 53.6739 42.0865 53.6106C41.9358 53.5473 41.8027 53.4776 41.6872 53.4015C41.5716 53.3255 41.4248 53.2302 41.2465 53.1158C41.0683 53.0014 40.9551 52.9279 40.907 52.8954C39.3161 51.9012 37.9202 50.7402 36.7193 49.4124C35.5184 48.0845 34.503 46.5794 33.673 44.897C33.6455 44.8459 33.5837 44.7259 33.4877 44.5371C33.3918 44.3483 33.3117 44.1926 33.2476 44.0701C33.1834 43.9475 33.1274 43.8081 33.0796 43.6518C33.0317 43.4955 33.015 43.3633 33.0294 43.2552C33.059 43.0193 33.2487 42.7433 33.5983 42.4271C33.8451 42.2039 34.2361 41.9025 34.7714 41.5229C35.3067 41.1433 35.6926 40.8466 35.9291 40.6327C36.2992 40.2979 36.4953 39.9876 36.5171 39.7017C36.534 39.5343 36.5018 39.3592 36.4204 39.1762C36.339 38.9932 36.2125 38.7655 36.0408 38.493C35.8692 38.2206 35.7696 38.0588 35.7421 38.0077C35.6775 37.895 35.4541 37.4413 35.0718 36.6465C34.6896 35.8518 34.343 35.1483 34.0323 34.536C33.7215 33.9237 33.5141 33.56 33.4101 33.445C33.2021 33.215 32.7302 33.1428 31.9945 33.2285C31.2588 33.3141 30.6697 33.443 30.2272 33.6152C29.9459 33.7175 29.6767 33.8849 29.4196 34.1174C29.07 34.4336 28.6513 34.9834 28.1634 35.7668C27.738 36.4746 27.4334 37.1351 27.2494 37.7481C27.0655 38.3612 27.0125 39.0363 27.0905 39.7736C27.1685 40.5109 27.2629 41.0908 27.3739 41.5131C27.4848 41.9355 27.6977 42.6411 28.0125 43.6299C28.0643 43.8112 28.1079 43.9524 28.1432 44.0534C28.6512 45.6279 29.3228 47.0732 30.1582 48.3896C30.9935 49.7059 32.0495 51.0698 33.3261 52.4813C34.6026 53.8928 35.854 55.08 37.0801 56.043C38.3062 57.0059 39.677 57.8189 41.1927 58.4819C42.9222 59.2367 44.1101 59.6924 44.7565 59.8491C46.2648 60.2146 47.7856 60.0462 49.3188 59.3438L49.4397 59.2915C50.268 58.8845 50.857 58.5229 51.2066 58.2067C51.4636 57.9742 51.6572 57.7231 51.7872 57.4535C52.0027 57.0304 52.19 56.4572 52.3488 55.7338C52.5077 55.0103 52.4831 54.5336 52.2751 54.3036ZM41.7773 37.7669C41.51 38.0087 41.1888 38.1186 40.8137 38.0966C40.4387 38.0747 40.1259 37.9252 39.8753 37.6481C39.6247 37.371 39.5073 37.0448 39.523 36.6695C39.5536 35.9385 39.3183 35.296 38.8171 34.7419C38.3254 34.1982 37.7049 33.8945 36.9556 33.8308C36.5806 33.8089 36.2702 33.662 36.0243 33.3901C35.7784 33.1183 35.6634 32.7947 35.6791 32.4193C35.6948 32.044 35.8363 31.7354 36.1036 31.4936C36.371 31.2518 36.6922 31.1419 37.0672 31.1639C38.5476 31.2505 39.789 31.848 40.7913 32.9563C41.7937 34.0646 42.2639 35.3595 42.2019 36.8412C42.1656 37.2351 42.0241 37.5437 41.7773 37.7669ZM47.1364 38.0806C46.8588 38.3317 46.5376 38.4416 46.1728 38.4104C45.7978 38.3884 45.4873 38.2415 45.2415 37.9697C44.9956 37.6978 44.8805 37.3742 44.8962 36.9989C44.9699 34.7654 44.2597 32.8227 42.7656 31.1707C41.2715 29.5188 39.4097 28.6176 37.18 28.4673C36.805 28.4453 36.4945 28.2984 36.2487 28.0266C36.0028 27.7547 35.8877 27.4311 35.9034 27.0558C35.9191 26.6804 36.0607 26.3719 36.328 26.1301C36.5954 25.8883 36.9166 25.7784 37.2916 25.8003C40.2524 25.9737 42.7352 27.1686 44.7399 29.3851C46.7446 31.6017 47.6849 34.1916 47.561 37.1549C47.5555 37.5209 47.414 37.8295 47.1364 38.0806ZM52.4955 38.3944C52.2178 38.6454 51.8966 38.7554 51.5319 38.7241C51.1568 38.7022 50.8464 38.5553 50.6005 38.2834C50.3547 38.0116 50.2396 37.688 50.2553 37.3126C50.3202 35.5242 50.0489 33.7928 49.4412 32.1185C48.8335 30.4442 47.9245 28.9379 46.7141 27.5996C45.5037 26.2613 44.096 25.206 42.4909 24.4338C40.8859 23.6615 39.1903 23.2182 37.4044 23.1037C37.0294 23.0818 36.7189 22.9349 36.4731 22.663C36.2272 22.3912 36.1121 22.0676 36.1278 21.6922C36.1435 21.3169 36.285 21.0083 36.5524 20.7665C36.8197 20.5247 37.1409 20.4148 37.516 20.4368C39.6675 20.5627 41.7034 21.0879 43.6236 22.0122C45.5439 22.9366 47.2321 24.2039 48.6884 25.814C50.1446 27.4241 51.2365 29.2308 51.964 31.2339C52.6914 33.2371 53.0101 35.3153 52.92 37.4686C52.9146 37.8347 52.7731 38.1433 52.4955 38.3944Z" fill="white"/>
</svg>
