<svg width="256" height="256" viewBox="0 0 256 256" fill="none" xmlns="http://www.w3.org/2000/svg">
<path d="M216 40H68.53C65.7684 40.008 63.0554 40.727 60.6523 42.0879C58.2493 43.4488 56.2372 45.4057 54.81 47.77L9.14004 123.88C8.39249 125.124 7.99756 126.548 7.99756 128C7.99756 129.452 8.39249 130.876 9.14004 132.12L54.81 208.23C56.2372 210.594 58.2493 212.551 60.6523 213.912C63.0554 215.273 65.7684 215.992 68.53 216H216C220.243 216 224.313 214.314 227.314 211.314C230.314 208.313 232 204.243 232 200V56C232 51.7565 230.314 47.6869 227.314 44.6863C224.313 41.6857 220.243 40 216 40ZM216 200H68.53L25.33 128L68.53 56H216V200ZM106.34 146.34L124.69 128L106.34 109.66C104.839 108.159 103.996 106.123 103.996 104C103.996 101.877 104.839 99.8411 106.34 98.34C107.841 96.8389 109.877 95.9956 112 95.9956C114.123 95.9956 116.159 96.8389 117.66 98.34L136 116.69L154.34 98.34C155.083 97.5967 155.966 97.0071 156.937 96.6049C157.908 96.2026 158.949 95.9956 160 95.9956C161.051 95.9956 162.092 96.2026 163.063 96.6049C164.034 97.0071 164.917 97.5967 165.66 98.34C166.403 99.0833 166.993 99.9657 167.395 100.937C167.797 101.908 168.004 102.949 168.004 104C168.004 105.051 167.797 106.092 167.395 107.063C166.993 108.034 166.403 108.917 165.66 109.66L147.31 128L165.66 146.34C166.403 147.083 166.993 147.966 167.395 148.937C167.797 149.908 168.004 150.949 168.004 152C168.004 153.051 167.797 154.092 167.395 155.063C166.993 156.034 166.403 156.917 165.66 157.66C164.917 158.403 164.034 158.993 163.063 159.395C162.092 159.797 161.051 160.004 160 160.004C158.949 160.004 157.908 159.797 156.937 159.395C155.966 158.993 155.083 158.403 154.34 157.66L136 139.31L117.66 157.66C116.917 158.403 116.034 158.993 115.063 159.395C114.092 159.797 113.051 160.004 112 160.004C110.949 160.004 109.908 159.797 108.937 159.395C107.966 158.993 107.083 158.403 106.34 157.66C105.597 156.917 105.007 156.034 104.605 155.063C104.203 154.092 103.996 153.051 103.996 152C103.996 150.949 104.203 149.908 104.605 148.937C105.007 147.966 105.597 147.083 106.34 146.34Z" fill="#212121"/>
</svg>
