<svg width="82" height="82" viewBox="0 0 82 82" fill="none" xmlns="http://www.w3.org/2000/svg">
<rect width="82" height="82" rx="41" fill="#2175E6"/>
<path d="M49.3166 57.4585C49.2237 57.2873 48.8793 56.8899 48.2835 56.2662C47.6876 55.6426 46.9987 54.9385 46.2165 54.1541C45.4344 53.3696 44.99 52.9156 44.8834 52.7921C44.8343 52.7382 44.6842 52.5527 44.433 52.2356C44.1818 51.9186 43.9647 51.6737 43.7818 51.501C43.599 51.3282 43.4049 51.2169 43.1996 51.1671C42.8517 51.0738 42.4023 51.1765 41.8512 51.4755C41.4991 51.6665 40.9865 51.9999 40.3134 52.4758C39.6404 52.9517 39.1201 53.2892 38.7527 53.4885C38.2323 53.7708 37.8261 53.8804 37.5342 53.8171C37.4001 53.7891 37.2505 53.7141 37.0853 53.5922C36.9201 53.4703 36.7783 53.3458 36.6598 53.2187C36.5413 53.0915 36.3902 52.9317 36.2066 52.7392C36.0229 52.5468 35.9065 52.4235 35.8575 52.3696C34.2103 50.6844 32.8506 48.8534 31.7783 46.8765C30.706 44.8997 29.9127 42.7615 29.3984 40.4618C29.38 40.3913 29.3401 40.2265 29.2789 39.9676C29.2177 39.7087 29.1662 39.4949 29.1242 39.3263C29.0823 39.1576 29.0553 38.9708 29.0432 38.7659C29.0311 38.5609 29.0498 38.3946 29.0994 38.267C29.2056 37.9878 29.5189 37.707 30.0394 37.4247C30.4068 37.2254 30.9734 36.9735 31.7394 36.6688C32.5053 36.3641 33.0643 36.1163 33.4164 35.9253C33.9675 35.6264 34.2988 35.3057 34.4102 34.9632C34.4804 34.764 34.493 34.5406 34.4479 34.2931C34.4028 34.0456 34.3159 33.7301 34.1872 33.3467C34.0584 32.9632 33.9848 32.7362 33.9664 32.6657C33.921 32.509 33.7828 31.8889 33.5517 30.8055C33.3207 29.7221 33.1063 28.7606 32.9085 27.9211C32.7106 27.0816 32.5653 26.5762 32.4724 26.405C32.2867 26.0625 31.7321 25.8345 30.8086 25.721C29.8852 25.6074 29.1279 25.5901 28.5367 25.669C28.163 25.7106 27.7848 25.8352 27.4021 26.0427C26.8816 26.3251 26.2075 26.872 25.3797 27.6837C24.6507 28.4216 24.083 29.1374 23.6767 29.8312C23.2705 30.525 23.0056 31.3335 22.8823 32.2566C22.7589 33.1797 22.7023 33.9154 22.7125 34.4639C22.7227 35.0124 22.7734 35.9368 22.8645 37.2371C22.874 37.4737 22.8853 37.6589 22.8985 37.7928C23.0518 39.8652 23.4432 41.8286 24.0726 43.683C24.7021 45.5375 25.5867 47.5154 26.7265 49.6167C27.8664 51.7181 29.0419 53.5382 30.253 55.0771C31.4642 56.616 32.8966 58.0148 34.5501 59.2735C36.4374 60.7075 37.7524 61.6159 38.495 61.9988C40.2278 62.8921 42.134 63.1374 44.2138 62.7345L44.3769 62.7065C45.5086 62.4552 46.3347 62.1884 46.8552 61.9061C47.2379 61.6985 47.5485 61.4494 47.7872 61.1588C48.1757 60.7063 48.5742 60.0621 48.9826 59.2261C49.391 58.3902 49.5023 57.801 49.3166 57.4585Z" fill="white"/>
<circle cx="45.7" cy="25.7" r="1.7" fill="white"/>
<circle cx="45.7" cy="30.2332" r="1.7" fill="white"/>
<circle cx="45.7" cy="34.7667" r="1.7" fill="white"/>
<circle cx="51.3667" cy="25.7" r="1.7" fill="white"/>
<circle cx="51.3667" cy="30.2332" r="1.7" fill="white"/>
<circle cx="51.3667" cy="34.7667" r="1.7" fill="white"/>
<circle cx="51.3667" cy="39.3001" r="1.7" fill="white"/>
<circle cx="57.0333" cy="25.7" r="1.7" fill="white"/>
<circle cx="57.0333" cy="34.7667" r="1.7" fill="white"/>
<circle cx="57.0333" cy="30.2332" r="1.7" fill="white"/>
</svg>
