<svg width="36" height="36" viewBox="0 0 36 36" fill="none" xmlns="http://www.w3.org/2000/svg">
<circle cx="18" cy="18" r="18" fill="#2175E6"/>
<g clip-path="url(#clip0_3810_3752)">
<path fill-rule="evenodd" clip-rule="evenodd" d="M11.6689 10.7597C11.6958 10.5326 11.7752 10.3148 11.9011 10.1238C12.0269 9.93278 12.1956 9.77379 12.3937 9.65948C12.5918 9.54518 12.8139 9.47871 13.0422 9.46539C13.2706 9.45206 13.4989 9.49224 13.7089 9.58272C14.7709 10.0367 17.1509 11.1157 20.1709 12.8587C23.1919 14.6027 25.3169 16.1257 26.2399 16.8167C27.0279 17.4077 27.0299 18.5797 26.2409 19.1727C25.3269 19.8597 23.2279 21.3627 20.1709 23.1287C17.1109 24.8947 14.7589 25.9607 13.7069 26.4087C12.8009 26.7957 11.7869 26.2087 11.6689 25.2317C11.5309 24.0897 11.2729 21.4967 11.2729 17.9947C11.2729 14.4947 11.5299 11.9027 11.6689 10.7597Z" fill="white"/>
</g>
<defs>
<clipPath id="clip0_3810_3752">
<rect width="24" height="24" fill="white" transform="translate(6 6)"/>
</clipPath>
</defs>
</svg>
