<svg width="82" height="82" viewBox="0 0 82 82" fill="none" xmlns="http://www.w3.org/2000/svg">
<rect width="82" height="82" rx="41" fill="#EB5757"/>
<path d="M26.2799 47C26.4423 47 26.8702 46.9087 27.5638 46.7261C28.2574 46.5435 29.0469 46.3258 29.9323 46.0729C30.8177 45.8201 31.3268 45.6796 31.4596 45.6515C31.5187 45.6375 31.7142 45.6024 32.0462 45.5462C32.3783 45.49 32.6439 45.4303 32.8431 45.3671C33.0423 45.3039 33.201 45.2091 33.319 45.0827C33.5256 44.872 33.6289 44.5138 33.6289 44.0081C33.6289 43.685 33.5883 43.1934 33.5072 42.5332C33.426 41.873 33.3854 41.3744 33.3854 41.0373C33.3854 40.5597 33.4666 40.2296 33.6289 40.047C33.7027 39.9627 33.8171 39.8855 33.972 39.8152C34.127 39.745 34.2745 39.6923 34.4147 39.6572C34.5549 39.6221 34.732 39.5764 34.946 39.5203C35.1599 39.4641 35.2964 39.429 35.3555 39.4149C37.2444 38.8952 39.1259 38.6353 41 38.6353C42.8741 38.6353 44.7556 38.8952 46.6445 39.4149C46.7036 39.429 46.8401 39.4641 47.054 39.5203C47.268 39.5764 47.4451 39.6221 47.5853 39.6572C47.7255 39.6923 47.873 39.745 48.028 39.8152C48.1829 39.8855 48.2973 39.9627 48.3711 40.047C48.5334 40.2296 48.6146 40.5597 48.6146 41.0373C48.6146 41.3744 48.574 41.873 48.4928 42.5332C48.4117 43.1934 48.3711 43.685 48.3711 44.0081C48.3711 44.5138 48.4744 44.872 48.681 45.0827C48.799 45.2091 48.9577 45.3039 49.1569 45.3671C49.3561 45.4303 49.6217 45.49 49.9538 45.5462C50.2858 45.6024 50.4813 45.6375 50.5404 45.6515C50.6732 45.6796 51.1823 45.8201 52.0677 46.0729C52.9531 46.3258 53.7426 46.5435 54.4362 46.7261C55.1298 46.9087 55.5577 47 55.7201 47C56.0447 47 56.4321 46.6945 56.8822 46.0835C57.3322 45.4724 57.6458 44.9422 57.8229 44.4927C57.941 44.2118 58 43.8957 58 43.5446C58 43.067 57.8672 42.3787 57.6016 41.4797C57.3507 40.6791 57.0519 40.0014 56.7051 39.4465C56.3583 38.8917 55.8713 38.393 55.2441 37.9506C54.617 37.5081 54.1005 37.185 53.6947 36.9814C53.2888 36.7777 52.5916 36.4581 51.6029 36.0227C51.4258 35.9384 51.2856 35.8752 51.1823 35.8331C49.6033 35.1448 48.0095 34.6672 46.401 34.4003C44.7925 34.1334 42.9922 34 41 34C39.0078 34 37.2075 34.1334 35.599 34.4003C33.9905 34.6672 32.3967 35.1448 30.8177 35.8331C29.0174 36.6197 27.8294 37.2026 27.2539 37.5818C25.911 38.4668 24.974 39.7239 24.4427 41.3533L24.3984 41.4797C24.1328 42.3787 24 43.067 24 43.5446C24 43.8957 24.059 44.2118 24.1771 44.4927C24.3542 44.9422 24.6677 45.4724 25.1178 46.0835C25.5679 46.6945 25.9553 47 26.2799 47Z" fill="white"/>
</svg>
