<svg width="20" height="20" viewBox="0 0 20 20" fill="none" xmlns="http://www.w3.org/2000/svg">
<rect width="20" height="20" rx="7" fill="url(#paint0_linear_1173_2444)"/>
<path d="M8.4375 9.47949H7.39583V10.5212H8.4375V9.47949ZM10.5208 9.47949H9.47917V10.5212H10.5208V9.47949ZM12.6042 9.47949H11.5625V10.5212H12.6042V9.47949ZM13.6458 5.83366H13.125V4.79199H12.0833V5.83366H7.91667V4.79199H6.875V5.83366H6.35417C5.77604 5.83366 5.31771 6.30241 5.31771 6.87533L5.3125 14.167C5.3125 14.4433 5.42225 14.7082 5.6176 14.9036C5.81295 15.0989 6.0779 15.2087 6.35417 15.2087H13.6458C14.2187 15.2087 14.6875 14.7399 14.6875 14.167V6.87533C14.6875 6.30241 14.2187 5.83366 13.6458 5.83366ZM13.6458 14.167H6.35417V8.43783H13.6458V14.167Z" fill="white"/>
<defs>
<linearGradient id="paint0_linear_1173_2444" x1="20" y1="10" x2="8.07269" y2="20.0691" gradientUnits="userSpaceOnUse">
<stop stop-color="#119480"/>
<stop offset="1" stop-color="#087B6A"/>
</linearGradient>
</defs>
</svg>
