<svg width="176" height="176" viewBox="0 0 176 176" fill="none" xmlns="http://www.w3.org/2000/svg">
<g clip-path="url(#clip0_235_2)">
<path d="M28.6667 147.333H43.5V73.1668C43.5 71.1998 44.2814 69.3133 45.6723 67.9225C47.0632 66.5316 48.9497 65.7502 50.9167 65.7502H139.917V50.9168C139.917 48.9498 139.135 47.0633 137.744 45.6725C136.354 44.2816 134.467 43.5002 132.5 43.5002H109.872C108.003 26.8572 94.0075 13.8335 76.875 13.8335C59.7425 13.8335 45.7473 26.8572 43.8783 43.5002H21.25C19.283 43.5002 17.3966 44.2816 16.0057 45.6725C14.6148 47.0633 13.8334 48.9498 13.8334 50.9168V132.5C13.8334 136.434 15.3962 140.207 18.178 142.989C20.9597 145.771 24.7327 147.333 28.6667 147.333ZM76.875 28.6668C85.827 28.6668 93.3252 35.0452 95.0459 43.5002H58.7042C60.4249 35.0452 67.9231 28.6668 76.875 28.6668Z" fill="white"/>
<path d="M154.75 80.5835H65.75C63.783 80.5835 61.8966 81.3649 60.5057 82.7558C59.1148 84.1467 58.3334 86.0331 58.3334 88.0002V147.333C58.3334 151.268 59.8962 155.04 62.678 157.822C65.4597 160.604 69.2327 162.167 73.1667 162.167H147.333C151.267 162.167 155.04 160.604 157.822 157.822C160.604 155.04 162.167 151.268 162.167 147.333V88.0002C162.167 86.0331 161.385 84.1467 159.994 82.7558C158.604 81.3649 156.717 80.5835 154.75 80.5835ZM110.25 132.5C89.8023 132.5 73.1667 115.865 73.1667 95.4168H88C88 107.684 97.9829 117.667 110.25 117.667C122.517 117.667 132.5 107.684 132.5 95.4168H147.333C147.333 115.865 130.698 132.5 110.25 132.5Z" fill="white"/>
</g>
<defs>
<clipPath id="clip0_235_2">
<rect width="176" height="176" fill="white"/>
</clipPath>
</defs>
</svg>
