<svg width="33" height="33" viewBox="0 0 33 33" fill="none" xmlns="http://www.w3.org/2000/svg">
<circle cx="16.5" cy="16.5" r="16.5" fill="white"/>
<path d="M20.0395 17.3171L16.8109 18.1566C16.6114 18.2085 16.402 18.2095 16.202 18.1596L12.7961 17.3103C12.256 17.1757 11.877 16.6905 11.877 16.1338V12.4128C11.8769 10.1137 13.7407 8.25 16.0397 8.25H16.7841C19.0832 8.25 20.9469 10.1137 20.9469 12.4128V16.1436C20.9469 16.6957 20.5739 17.1781 20.0395 17.3171Z" fill="#019983"/>
<path d="M16.7842 8.25H16.0398C15.8528 8.25 15.6687 8.26254 15.4883 8.28642C17.5266 8.55625 19.0996 10.3007 19.0996 12.4128V16.1436C19.0996 16.6957 18.7266 17.1781 18.1922 17.3171L15.5639 18.0005L16.2021 18.1596C16.4021 18.2095 16.6115 18.2085 16.811 18.1566L20.0396 17.3171C20.574 17.1781 20.947 16.6957 20.947 16.1435V12.4128C20.9469 10.1137 19.0832 8.25 16.7842 8.25Z" fill="#019983"/>
<path d="M12.0676 15.0121H12.9509V12.8555H12.0676C11.808 12.8555 11.5977 13.0658 11.5977 13.3254V14.5422C11.5977 14.8017 11.808 15.0121 12.0676 15.0121Z" fill="#394543"/>
<path d="M20.9302 15.0121H20.0469V12.8555H20.9302C21.1897 12.8555 21.4001 13.0658 21.4001 13.3254V14.5422C21.4001 14.8017 21.1897 15.0121 20.9302 15.0121Z" fill="#394543"/>
<path d="M18.4941 18.7741C18.1852 18.712 17.9629 18.4406 17.9629 18.1255V16.6343H16.4995H15.0362V18.1255C15.0362 18.4406 14.8139 18.712 14.505 18.7741L14.1484 18.8458V21.2405H16.4995H18.8506V18.8458L18.4941 18.7741Z" fill="#FED9A8"/>
<path d="M21.5412 19.579L18.6061 18.6638C18.515 18.6354 18.4156 18.6585 18.3463 18.7241L16.4998 20.474L14.6533 18.7241C14.5841 18.6585 14.4847 18.6354 14.3936 18.6638L11.4585 19.579C10.1572 19.9622 9.26367 21.1567 9.26367 22.5132V24.4686C9.26367 24.6242 9.38987 24.7504 9.54553 24.7504H23.4542C23.6098 24.7504 23.736 24.6242 23.736 24.4686V22.5132C23.736 21.1566 22.8425 19.9621 21.5412 19.579Z" fill="#019983"/>
<path d="M21.542 19.579L18.6068 18.6638C18.5157 18.6354 18.4164 18.6585 18.3471 18.7241L18.002 19.0512L19.6946 19.579C20.9959 19.9621 21.8894 21.1566 21.8894 22.5132V24.7504H23.4549C23.6106 24.7504 23.7368 24.6242 23.7368 24.4686V22.5132C23.7368 21.1566 22.8433 19.9621 21.542 19.579Z" fill="#019983"/>
<path d="M16.4992 17.8745C14.4846 17.8745 12.8516 16.2414 12.8516 14.2269V13.2018C12.8516 11.1873 14.4847 9.5542 16.4992 9.5542C18.5137 9.5542 20.1468 11.1873 20.1468 13.2018V14.2269C20.1468 16.2415 18.5137 17.8745 16.4992 17.8745Z" fill="#FED9A8"/>
<path d="M18.3001 10.0288V14.2269C18.3001 15.9222 17.1434 17.3474 15.5762 17.7564C15.8712 17.8334 16.1807 17.8745 16.4998 17.8745C18.5144 17.8745 20.1475 16.2414 20.1475 14.2269V13.2018C20.1475 11.842 19.4033 10.6561 18.3001 10.0288Z" fill="#F4C892"/>
<path d="M14.6547 18.7231L16.5012 20.473L15.3624 20.8609C15.0834 20.956 14.7746 20.8733 14.5804 20.6516L13.1719 19.0442L14.395 18.6628C14.4861 18.6344 14.5855 18.6575 14.6547 18.7231Z" fill="#00483D"/>
<path d="M18.3484 18.7231L16.502 20.473L17.534 20.8246C17.8776 20.9416 18.2578 20.8398 18.497 20.5669L19.8313 19.0442L18.6082 18.6628C18.517 18.6344 18.4177 18.6575 18.3484 18.7231Z" fill="#00483D"/>
<path d="M14.3201 23.3028H12.4427C12.3384 23.3028 12.2539 23.2183 12.2539 23.1141V22.2825C12.2539 22.1782 12.3384 22.0938 12.4427 22.0938H14.3201C14.4244 22.0938 14.5089 22.1782 14.5089 22.2825V23.1141C14.5089 23.2183 14.4244 23.3028 14.3201 23.3028Z" fill="#EDA558"/>
<path d="M20.9469 13.1817C20.9469 13.1817 19.3732 13.0568 18.8347 11.6092C18.8347 11.6092 15.0304 14.6549 11.877 13.1817V12.4128C11.877 10.1137 13.7407 8.25 16.0398 8.25H16.7842C19.0832 8.25 20.9469 10.1137 20.9469 12.4128V13.1817Z" fill="#019983"/>
<path d="M16.7842 8.25H16.0398C15.8528 8.25 15.6687 8.26254 15.4883 8.28642C17.4264 8.54297 18.9437 10.1328 19.0882 12.1041C19.7518 13.0866 20.9469 13.1817 20.9469 13.1817V12.4128C20.9469 10.1137 19.0832 8.25 16.7842 8.25Z" fill="#019983"/>
<path d="M21.8567 21.9736C21.719 21.9736 21.6074 22.0852 21.6074 22.2229V24.7504H22.1059V22.2228C22.1059 22.0852 21.9943 21.9736 21.8567 21.9736Z" fill="#00483D"/>
<path d="M11.1399 21.9736C11.0022 21.9736 10.8906 22.0852 10.8906 22.2229V24.7504H11.3891V22.2228C11.3891 22.0852 11.2775 21.9736 11.1399 21.9736Z" fill="#00483D"/>
<path d="M20.2487 15.0117V15.4663C20.2487 15.8582 19.9684 16.1908 19.5821 16.257L17.0742 16.687C16.9386 16.7103 16.8476 16.839 16.8708 16.9745C16.8916 17.0958 16.9969 17.1815 17.1159 17.1815C17.1299 17.1815 17.1441 17.1803 17.1583 17.1779L19.6663 16.7478C20.2923 16.6404 20.7467 16.1015 20.7467 15.4663V15.0117H20.2487V15.0117Z" fill="#394543"/>
<path d="M17.1513 17.4215C16.9209 17.4215 16.7172 17.2558 16.6769 17.0211C16.6319 16.7588 16.8081 16.5097 17.0704 16.4647L17.8829 16.3254C18.1452 16.2803 18.3943 16.4566 18.4392 16.7188C18.4842 16.9811 18.308 17.2302 18.0458 17.2752L17.2333 17.4146C17.2057 17.4193 17.1783 17.4215 17.1513 17.4215Z" fill="#00483D"/>
</svg>
