<svg width="176" height="176" viewBox="0 0 176 176" fill="none" xmlns="http://www.w3.org/2000/svg">
<g clip-path="url(#clip0_235_2)">
<path d="M140.849 113.466C140.849 75.9587 71.7005 78.408 71.7005 55.7627C71.7005 44.8018 82.1872 39.4485 94.3507 39.4485C114.806 39.4485 118.448 52.5898 127.712 52.5898C134.273 52.5898 137.432 48.4587 137.432 43.8289C137.432 33.0685 121.117 24.9236 105.473 22.1027V11.7187C105.473 8.6081 104.237 5.62493 102.038 3.42542C99.8383 1.22591 96.8551 -0.00976562 93.7445 -0.00976562C90.6339 -0.00976562 87.6508 1.22591 85.4512 3.42542C83.2517 5.62493 82.0161 8.6081 82.0161 11.7187V22.4693C64.9587 26.3511 50.2872 38.1822 50.2872 57.4689C50.2872 93.4951 119.426 92.0382 119.426 117.343C119.426 126.109 109.937 134.875 94.3507 134.875C70.9769 134.875 63.1889 119.054 53.6947 119.054C49.0698 119.054 44.9338 122.946 44.9338 128.812C44.9338 138.131 60.5538 149.346 82.0307 152.48L82.0161 152.553V164.272C82.1042 167.325 83.379 170.223 85.5699 172.352C87.7607 174.48 90.6949 175.671 93.7494 175.671C96.8039 175.671 99.7381 174.48 101.929 172.352C104.12 170.223 105.395 167.325 105.483 164.272V152.553C105.483 152.416 105.414 152.308 105.405 152.186C124.73 148.578 140.849 135.98 140.849 113.466V113.466Z" fill="white"/>
</g>
<defs>
<clipPath id="clip0_235_2">
<rect width="176" height="176" fill="white"/>
</clipPath>
</defs>
</svg>
