<svg width="84" height="84" viewBox="0 0 84 84" fill="none" xmlns="http://www.w3.org/2000/svg">
<path d="M30.75 36.3752H53.25C54.4931 36.3752 55.5 35.3684 55.5 34.1253V31.8753C55.5 30.6322 54.4931 29.6253 53.25 29.6253H30.75C29.5069 29.6253 28.5 30.6322 28.5 31.8753V34.1253C28.5 35.3684 29.5069 36.3752 30.75 36.3752ZM28.5 47.6252C28.5 48.8683 29.5069 49.8752 30.75 49.8752H53.25C54.4931 49.8752 55.5 48.8683 55.5 47.6252V45.3752C55.5 44.1321 54.4931 43.1252 53.25 43.1252H30.75C29.5069 43.1252 28.5 44.1321 28.5 45.3752V47.6252ZM42 64.659C39.6909 64.659 37.3819 63.9474 35.4103 62.5229L6 41.2774V71.25C6 74.978 9.02203 78 12.75 78H71.25C74.978 78 78 74.978 78 71.25V41.2774L48.5897 62.5229C46.6181 63.946 44.3091 64.659 42 64.659ZM75.4139 28.9151C74.1694 27.9392 72.9895 27.0209 71.25 25.7075V19.5004C71.25 15.7724 68.228 12.7504 64.5 12.7504H53.5945C53.167 12.441 52.7691 12.1513 52.3233 11.8279C49.9594 10.1024 45.2625 5.95122 42 6.00043C38.7375 5.95122 34.042 10.1024 31.6767 11.8279C31.2309 12.1513 30.833 12.441 30.4055 12.7504H19.5C15.772 12.7504 12.75 15.7724 12.75 19.5004V25.7075C11.0105 27.0195 9.83062 27.9392 8.58609 28.9151C7.78054 29.5464 7.1291 30.3527 6.68107 31.2729C6.23303 32.193 6.00014 33.2031 6 34.2265L6 35.7242L19.5 45.4764V19.5004H64.5V45.4764L78 35.7242V34.2265C78 32.1537 77.0466 30.1948 75.4139 28.9151V28.9151Z" fill="#333333"/>
</svg>
