<svg width="16" height="16" viewBox="0 0 16 16" fill="none" xmlns="http://www.w3.org/2000/svg">
<g clip-path="url(#clip0_1032_85291)">
<path d="M2.86465 14.8502C2.78665 15.2942 3.22465 15.6412 3.61065 15.4432L8.00065 13.1872L12.3897 15.4432C12.7757 15.6412 13.2137 15.2942 13.1357 14.8512L12.3057 10.1212L15.8277 6.76517C16.1577 6.45117 15.9877 5.87717 15.5457 5.81517L10.6477 5.11917L8.46365 0.792167C8.42205 0.704456 8.35641 0.63035 8.27436 0.57846C8.19232 0.526569 8.09723 0.499023 8.00015 0.499023C7.90308 0.499023 7.80799 0.526569 7.72594 0.57846C7.6439 0.63035 7.57826 0.704456 7.53665 0.792167L5.35265 5.12017L0.454653 5.81617C0.0136534 5.87817 -0.157347 6.45217 0.171653 6.76617L3.69465 10.1222L2.86465 14.8522V14.8502ZM7.76965 12.0832L4.08365 13.9772L4.77765 10.0202C4.79391 9.92908 4.78755 9.83539 4.75913 9.74734C4.73071 9.65929 4.6811 9.57956 4.61465 9.51517L1.70865 6.74517L5.76065 6.16917C5.84456 6.1565 5.92414 6.12368 5.99259 6.07352C6.06103 6.02336 6.1163 5.95736 6.15365 5.88117L7.99865 2.22317L9.84565 5.88117C9.88301 5.95736 9.93828 6.02336 10.0067 6.07352C10.0752 6.12368 10.1547 6.1565 10.2387 6.16917L14.2907 6.74417L11.3847 9.51417C11.3181 9.57866 11.2684 9.65855 11.2399 9.7468C11.2115 9.83504 11.2052 9.92893 11.2217 10.0202L11.9157 13.9772L8.22965 12.0832C8.15838 12.0464 8.07935 12.0272 7.99915 12.0272C7.91896 12.0272 7.83993 12.0464 7.76865 12.0832H7.76965Z" fill="#CBD3D8"/>
</g>
<defs>
<clipPath id="clip0_1032_85291">
<rect width="16" height="16" fill="white"/>
</clipPath>
</defs>
</svg>
