<svg width="32" height="32" viewBox="0 0 32 32" fill="none" xmlns="http://www.w3.org/2000/svg">
<circle cx="16" cy="16" r="16" fill="white"/>
<g clip-path="url(#clip0_979_84618)">
<path d="M23.0002 7.06207L15.3127 9.71832C15.3127 9.71832 15.0315 9.09332 14.7815 8.74957C14.1877 7.87457 13.1565 8.15582 13.1565 8.15582L7.28147 10.0621C7.28147 10.0621 6.46897 10.4058 6.15647 11.3121C5.84397 12.1871 6.15647 13.2808 6.15647 13.2808L9.53147 27.0308L23.0002 15.2808C23.0002 15.2808 23.4377 10.0308 23.719 7.62457C23.8127 6.74957 23.0002 7.06207 23.0002 7.06207Z" fill="#962C2C"/>
<path d="M22.75 14.7812L23.9687 7.0625L7.0625 13.4062L9.5 26.8437L22.75 14.7812Z" fill="#9AABAF"/>
<path d="M23.1563 15.6875L24.375 7.28125L7.46875 13.9063L9.5 26.8437L23.1563 15.6875Z" fill="#B3C0C4"/>
<path d="M23.4688 15.9375L24.8438 7.4375L7.8125 14.375L9.5 26.8437L23.4688 15.9375Z" fill="#C5CFD3"/>
<path d="M23.8437 16.2813L25.1562 7.75L8.15625 14.9375L9.5 26.8437L23.8437 16.2813Z" fill="#D9E3E8"/>
<path d="M9.53125 27.0004L24.25 16.5629L26 8.81294C26 8.81294 26.0938 8.56294 25.8438 8.25044C25.6562 8.03169 25.375 8.12544 25.375 8.12544L17.4688 11.4692C17.4688 11.4692 17 13.3442 16.0625 13.8442C15.0313 14.3754 10.1875 16.7504 10.1875 16.7504C10.1875 16.7504 9.5 17.1567 9.09375 17.8129C8.71875 18.4379 8.65625 19.2192 8.65625 19.2192L9.53125 27.0004Z" fill="#FF8736"/>
</g>
<defs>
<clipPath id="clip0_979_84618">
<rect width="20" height="20" fill="white" transform="translate(6 7)"/>
</clipPath>
</defs>
</svg>
