<svg width="176" height="176" viewBox="0 0 176 176" fill="none" xmlns="http://www.w3.org/2000/svg">
<path d="M10 51.021V131.934C10 136.635 12.7354 141.075 17.3125 142.72C40.875 151.209 64.4375 145.411 88 139.612C109.612 134.311 131.225 128.982 152.81 134.676C159.04 136.322 166 132.195 166 125.953V45.0662C166 40.365 163.265 35.925 158.687 34.2796C135.125 25.7913 111.562 31.5894 88 37.3876C66.3875 42.6895 44.775 47.9914 23.1896 42.2977C16.9333 40.6523 10 44.7789 10 51.021ZM44.6667 130.288H27.3333V113.573C36.8937 113.573 44.6667 121.069 44.6667 130.288ZM27.3333 80.1423V63.427H44.6667C44.6667 72.6465 36.8937 80.1423 27.3333 80.1423ZM131.333 113.573C131.333 104.353 139.106 96.8577 148.667 96.8577V113.573H131.333ZM148.667 63.427C139.106 63.427 131.333 55.9312 131.333 46.7116H148.667V63.427ZM114 88.5C114 104.667 102.354 117.752 88 117.752C73.6458 117.752 62 104.667 62 88.5C62 72.3331 73.6458 59.2481 88 59.2481C102.354 59.2481 114 72.3331 114 88.5ZM78.25 75.9635C78.25 78.4969 80.1187 80.5863 82.5833 81.0826V93.7235H81.5C78.5208 93.7235 76.0833 96.0741 76.0833 98.9471C76.0833 101.82 78.5208 104.171 81.5 104.171H94.5C97.4792 104.171 99.9167 101.82 99.9167 98.9471C99.9167 96.0741 97.4792 93.7235 94.5 93.7235H93.4167V75.9635C93.4167 73.0905 90.9792 70.7399 88 70.7399H83.6667C80.6875 70.7399 78.25 73.0905 78.25 75.9635Z" fill="white"/>
</svg>
