<svg width="33" height="33" viewBox="0 0 33 33" fill="none" xmlns="http://www.w3.org/2000/svg">
<circle cx="16.5" cy="16.5" r="16.5" fill="white"/>
<path d="M29.4788 15.7504L8.54553 20.2398L4.5293 14.9212L25.4626 10.4316L29.4788 15.7504Z" fill="#47A047"/>
<path d="M27.1575 15.3041L19.254 17.0006C20.2535 16.5032 20.5528 15.5848 19.8988 14.7175C19.6501 14.3901 19.2955 14.1053 18.8763 13.8799C18.1809 13.5101 17.315 13.3017 16.4629 13.3102L24.371 11.614C24.7211 11.5374 25.1126 11.5884 25.3659 11.7203C25.4488 11.767 25.5179 11.8222 25.5685 11.8859L27.6688 14.6623C27.8576 14.9174 27.6319 15.2022 27.1575 15.3041V15.3041Z" fill="#96D696"/>
<path d="M24.71 12.0431C24.7602 12.0699 24.8015 12.1022 24.8302 12.1394C24.9424 12.2899 24.8087 12.4591 24.5276 12.5186C24.3204 12.5642 24.0899 12.5349 23.9407 12.4553C23.8897 12.4281 23.8481 12.3951 23.8202 12.3572C23.7051 12.2083 23.8418 12.0375 24.117 11.9779C24.3279 11.9332 24.5591 11.9627 24.71 12.0431V12.0431Z" fill="#47A047"/>
<path d="M25.6394 15.3269C25.6018 15.4068 25.4966 15.4663 25.3268 15.504C25.1542 15.54 25.0017 15.5369 24.8695 15.4915C24.8317 15.4785 24.7961 15.463 24.7626 15.4452C24.6789 15.4006 24.6086 15.3407 24.5516 15.2658C24.4689 15.1592 24.4508 15.0651 24.4853 14.9837C24.526 14.9021 24.6282 14.8442 24.8009 14.8081C24.9707 14.7705 25.1231 14.7737 25.2553 14.8191C25.2959 14.8322 25.3336 14.8483 25.369 14.8671C25.4515 14.9111 25.5203 14.9706 25.5761 15.0463C25.6559 15.1514 25.677 15.2438 25.6394 15.3269V15.3269ZM25.2531 15.4052C25.3583 15.3833 25.4196 15.3441 25.4311 15.2877C25.4483 15.2313 25.4244 15.1655 25.3653 15.0902C25.321 15.0275 25.2646 14.9779 25.1977 14.9423C25.1842 14.9351 25.1704 14.9286 25.1562 14.9225C25.074 14.888 24.9802 14.8818 24.8747 14.9037C24.7693 14.9257 24.7109 14.9664 24.6937 15.0228C24.6794 15.0808 24.7004 15.1451 24.7565 15.2219C24.8032 15.2831 24.8599 15.3325 24.9268 15.3681C24.9403 15.3753 24.9543 15.3819 24.9686 15.388C25.0508 15.4225 25.1476 15.4303 25.2531 15.4052Z" fill="#414A61"/>
<path d="M24.0213 14.9941L24.5265 15.6665L24.3245 15.7088L23.8961 15.1368L23.6413 15.1917L23.5645 15.0914L24.0213 14.9941Z" fill="#414A61"/>
<path d="M12.1459 15.8975C12.3437 16.0029 12.5058 16.1308 12.6172 16.2778C13.0575 16.8592 12.5339 17.5206 11.4449 17.7526C10.634 17.9269 9.73796 17.8138 9.15399 17.5026C8.9559 17.397 8.79367 17.2687 8.6829 17.121C8.24265 16.5396 8.76914 15.8798 9.85524 15.6462C10.6666 15.4718 11.5616 15.586 12.1459 15.8975V15.8975Z" fill="#47A047"/>
<path d="M21.728 12.6798C21.7791 12.7071 21.8211 12.7403 21.8497 12.7786C21.9619 12.9291 21.8281 13.0983 21.5471 13.1579C21.3399 13.2034 21.1094 13.1741 20.9601 13.0945C20.9091 13.0674 20.8676 13.0344 20.8397 12.9965C20.7246 12.8475 20.8612 12.6767 21.1393 12.6156C21.3489 12.5712 21.5782 12.6 21.728 12.6798V12.6798Z" fill="#47A047"/>
<path d="M23.2175 12.3618C23.269 12.3892 23.3111 12.4225 23.3397 12.4608C23.4549 12.6097 23.3181 12.7806 23.0371 12.8401C22.8286 12.8836 22.5981 12.8539 22.4473 12.7736C22.397 12.7468 22.3556 12.7144 22.3268 12.6771C22.2145 12.5267 22.3483 12.3574 22.6293 12.2979C22.8365 12.2523 23.0671 12.2816 23.2175 12.3618Z" fill="#47A047"/>
<path d="M26.8779 15.0615C26.8402 15.1414 26.7351 15.201 26.5652 15.2386C26.3926 15.2746 26.2402 15.2715 26.1079 15.2261C26.0702 15.2131 26.0346 15.1976 26.001 15.1798C25.9171 15.135 25.8462 15.0749 25.7871 14.9988C25.7074 14.8938 25.6891 14.7998 25.7238 14.7183C25.7643 14.6368 25.8666 14.5788 26.0364 14.5411C26.209 14.5052 26.3615 14.5083 26.4937 14.5537C26.5331 14.5672 26.5702 14.5833 26.6052 14.6019C26.6878 14.6459 26.7577 14.7045 26.8116 14.7794C26.8943 14.886 26.9154 14.9784 26.8779 15.0615V15.0615ZM26.4915 15.1398C26.5967 15.1179 26.6581 15.0787 26.6695 15.0223C26.6839 14.9674 26.6628 14.9001 26.6037 14.8248C26.557 14.7608 26.5022 14.7121 26.4359 14.6767C26.4226 14.6697 26.4088 14.6632 26.3947 14.6571C26.3124 14.6226 26.2157 14.6148 26.1132 14.6383C26.0078 14.6603 25.9436 14.701 25.9321 14.7574C25.9149 14.8139 25.9358 14.8813 25.992 14.9549C26.0412 15.0174 26.0983 15.067 26.1635 15.1018C26.1767 15.1088 26.1903 15.1152 26.2041 15.121C26.2892 15.1571 26.3831 15.1634 26.4915 15.1398" fill="#414A61"/>
<path d="M15.1284 16.7931C15.8225 17.163 16.6931 17.3734 17.5448 17.3663L9.63856 19.0616C9.28624 19.1377 8.89724 19.0877 8.64298 18.9522C8.55714 18.9065 8.48668 18.851 8.43817 18.7873L6.34011 16.0103C6.15092 15.7564 6.37796 15.4711 6.84909 15.3693L14.7561 13.6738C13.7552 14.1708 13.4497 15.0906 14.1043 15.9585C14.3521 16.2865 14.7079 16.569 15.1284 16.7931V16.7931ZM11.4449 17.753C12.534 17.521 13.0575 16.8596 12.6173 16.2782C12.5058 16.1312 12.3437 16.0033 12.1459 15.8979C11.5616 15.5864 10.6666 15.4722 9.85528 15.6466C8.76918 15.8802 8.24268 16.54 8.68294 17.1214C8.7937 17.2691 8.95593 17.3974 9.15401 17.503C9.73799 17.8142 10.6341 17.9273 11.4449 17.753" fill="#96D696"/>
<path d="M29.4803 15.752L29.4718 18.5245L8.53906 23.0145L8.54758 20.242L29.4803 15.752Z" fill="#47A047"/>
<path d="M29.4742 17.6152L8.54162 22.0698L8.54102 22.2687L29.4736 17.8145L29.4742 17.6152Z" fill="#5FAF5F"/>
<path d="M29.4762 17.2646L8.54357 21.7189L8.54297 21.9182L29.4756 17.4639L29.4762 17.2646Z" fill="#5FAF5F"/>
<path d="M29.4801 15.8623L8.54748 20.3166L8.54688 20.5156L29.4795 16.0613L29.4801 15.8623Z" fill="#5FAF5F"/>
<path d="M29.4781 16.5635L8.54552 21.0178L8.54492 21.217L29.4775 16.7627L29.4781 16.5635Z" fill="#5FAF5F"/>
<path d="M29.4762 16.9141L8.54357 21.3684L8.54297 21.5676L29.4756 17.1133L29.4762 16.9141Z" fill="#5FAF5F"/>
<path d="M29.4723 18.3164L8.5397 22.7709L8.53906 22.9699L29.4717 18.5156L29.4723 18.3164Z" fill="#5FAF5F"/>
<path d="M29.4781 16.2129L8.54552 20.667L8.54492 20.8662L29.4775 16.4119L29.4781 16.2129Z" fill="#5FAF5F"/>
<path d="M29.4742 17.9658L8.54162 22.4201L8.54102 22.6191L29.4736 18.1648L29.4742 17.9658Z" fill="#5FAF5F"/>
<path d="M16.3327 18.5709L16.3242 21.3433L19.3273 20.6992L19.3358 17.9268L16.3327 18.5709Z" fill="#ED5D71"/>
<path d="M16.7155 18.4898L16.707 21.2622L19.7101 20.6181L19.7186 17.8457L16.7155 18.4898Z" fill="#E3E7F0"/>
<path d="M8.54682 20.2419L8.5383 23.0144L4.51953 17.6954L4.52805 14.9229L8.54682 20.2419Z" fill="#5FAF5F"/>
<path d="M27.5117 15.1074L27.5027 18.0318L20.4219 21.8302L20.4309 18.9058L27.5117 15.1074Z" fill="#47A047"/>
<path d="M20.4312 18.906L20.4223 21.8304L5.4043 13.8268L5.41328 10.9023L20.4312 18.906Z" fill="#47A047"/>
<path d="M5.4082 12.4719L20.4262 20.4715L20.4266 20.3218L5.40865 12.3223L5.4082 12.4719Z" fill="#77CB77"/>
<path d="M5.41016 12.1262L20.4281 20.1258L20.4286 19.9764L5.41063 11.9766L5.41016 12.1262Z" fill="#77CB77"/>
<path d="M20.4306 18.9051L5.41267 10.9014L5.41211 11.0874L20.4301 19.087L20.4306 18.9051Z" fill="#77CB77"/>
<path d="M5.4043 13.8256L20.4222 21.8291L20.4226 21.7066L5.40466 13.707L5.4043 13.8256Z" fill="#77CB77"/>
<path d="M5.40625 13.1641L20.4242 21.1637L20.4247 21.0142L5.4067 13.0146L5.40625 13.1641Z" fill="#77CB77"/>
<path d="M5.4043 13.5108L20.4223 21.5106L20.4227 21.3609L5.40477 13.3613L5.4043 13.5108Z" fill="#77CB77"/>
<path d="M5.4082 12.8184L20.4262 20.8182L20.4266 20.6685L5.40865 12.6689L5.4082 12.8184Z" fill="#77CB77"/>
<path d="M20.4306 19.2838L5.41256 11.2842L5.41211 11.4339L20.4301 19.4332L20.4306 19.2838Z" fill="#77CB77"/>
<path d="M5.41063 11.6299L5.41016 11.7793L20.4281 19.7789L20.4286 19.6295L5.41063 11.6299Z" fill="#77CB77"/>
<path d="M14.688 15.8444L14.679 18.7688L12.0098 17.3463L12.0187 14.4219L14.688 15.8444Z" fill="#D3DBEA"/>
<path d="M11.7355 14.2715L11.7266 17.1959L12.0095 17.3468L12.0185 14.4223L11.7355 14.2715Z" fill="#E34454"/>
<path d="M14.6887 15.8447L14.6797 18.7692L14.9626 18.92L14.9716 15.9956L14.6887 15.8447Z" fill="#E34454"/>
<path d="M27.5129 15.1072L20.432 18.9056L5.41406 10.9019L12.4949 7.10352L27.5129 15.1072Z" fill="#47A047"/>
<path d="M20.0806 16.4376C20.1578 16.4787 20.1828 16.5243 20.1528 16.5757C20.1285 16.6271 20.0655 16.6786 19.9642 16.7329C19.8628 16.7873 19.7641 16.8226 19.6681 16.8358C19.5747 16.8505 19.4894 16.8373 19.4121 16.7961C19.3377 16.7565 19.3127 16.7109 19.3372 16.6594C19.3644 16.6065 19.4244 16.5537 19.5258 16.4993C19.6245 16.4464 19.726 16.4126 19.822 16.3994C19.9208 16.3847 20.0062 16.3979 20.0806 16.4376Z" fill="#96D696"/>
<path d="M20.3581 16.5832C20.3339 16.6611 20.2546 16.739 20.1149 16.8139C19.9726 16.8903 19.8271 16.9329 19.6843 16.9447C19.5388 16.9579 19.404 16.9329 19.2799 16.8668C19.1586 16.8021 19.1087 16.7286 19.1329 16.6508C19.1544 16.5744 19.2364 16.498 19.3788 16.4216C19.5185 16.3467 19.6612 16.3026 19.8067 16.2894C19.9523 16.2761 20.0871 16.304 20.2084 16.3687C20.3325 16.4348 20.3824 16.5053 20.3581 16.5832V16.5832ZM19.6672 16.8359C19.7632 16.8227 19.862 16.7875 19.9633 16.7331C20.0647 16.6787 20.1276 16.6273 20.152 16.5759C20.1819 16.5244 20.1569 16.4789 20.0797 16.4377C20.0053 16.3981 19.92 16.3848 19.8211 16.3995C19.7251 16.4127 19.6236 16.4465 19.5249 16.4995C19.4236 16.5538 19.3635 16.6067 19.3363 16.6596C19.3118 16.7111 19.3368 16.7566 19.4113 16.7963C19.4885 16.8375 19.5738 16.8507 19.6672 16.8359Z" fill="#4C5671"/>
<path d="M20.968 16.9112C21.1373 17.0014 21.0198 17.1164 20.8516 17.2066C20.6817 17.2977 20.4699 17.3606 20.2996 17.2698C20.1317 17.1803 20.2444 17.0635 20.4132 16.9729C20.5119 16.92 20.6134 16.8862 20.7094 16.873C20.8083 16.8583 20.8936 16.8715 20.968 16.9112Z" fill="#96D696"/>
<path d="M21.0033 17.2866C20.75 17.4224 20.4292 17.4785 20.1683 17.3394C19.9077 17.2006 20.0073 17.0337 20.2672 16.8942C20.4069 16.8193 20.5495 16.7752 20.6951 16.762C20.8407 16.7487 20.9755 16.7767 21.0968 16.8414C21.3564 16.9797 21.2615 17.1481 21.0033 17.2866V17.2866ZM20.5556 17.3086C20.6516 17.2954 20.7503 17.2601 20.8517 17.2058C21.0199 17.1155 21.1373 17.0006 20.9681 16.9104C20.8937 16.8707 20.8083 16.8575 20.7095 16.8722C20.6135 16.8854 20.512 16.9192 20.4133 16.9721C20.2445 17.0627 20.1318 17.1795 20.2997 17.269C20.3768 17.3101 20.4622 17.3233 20.5556 17.3086" fill="#4C5671"/>
<path d="M24.5174 15.0189C24.7187 15.1262 24.7196 15.2996 24.5198 15.4068C24.3197 15.5141 23.9955 15.5141 23.7942 15.4068C23.593 15.2996 23.5919 15.1262 23.7919 15.0189C23.9918 14.9117 24.3161 14.9116 24.5174 15.0189V15.0189Z" fill="#47A047"/>
<path d="M22.3807 13.8793C22.5792 13.9851 22.5802 14.1585 22.3803 14.2657C22.1803 14.373 21.856 14.373 21.6575 14.2672C21.4563 14.1599 21.4551 13.9866 21.6552 13.8793C21.855 13.772 22.1794 13.772 22.3807 13.8793V13.8793Z" fill="#5FAF5F"/>
<path d="M23.4486 14.4483C23.6498 14.5556 23.6508 14.729 23.4509 14.8362C23.2509 14.9435 22.9267 14.9435 22.7254 14.8362C22.5269 14.7304 22.5258 14.5571 22.7258 14.4498C22.9257 14.3425 23.2501 14.3425 23.4486 14.4483Z" fill="#47A047"/>
<path d="M19.6181 16.0782L18.7223 16.5587L18.5762 16.4808L19.3378 16.0723L19.1558 15.9753L19.29 15.9033L19.6181 16.0782Z" fill="#4C5671"/>
<path d="M18.2974 11.3226C17.1259 11.0462 15.5335 11.2434 14.3799 11.8622C13.2241 12.4822 12.8616 13.3333 13.3826 13.9584L7.7154 10.9381C7.37904 10.7588 7.37454 10.4664 7.71144 10.2857L11.4093 8.302C11.7462 8.12127 12.2931 8.12272 12.6295 8.30198L18.2974 11.3226ZM10.4959 11.2922C11.2761 11.708 12.5348 11.708 13.3101 11.2921C14.0853 10.8763 14.0812 10.2033 13.3009 9.7875C12.5207 9.37167 11.262 9.37167 10.4868 9.78749C9.71153 10.2034 9.71564 10.8764 10.4959 11.2922Z" fill="#96D696"/>
<path d="M13.3011 9.78746C14.0814 10.2033 14.0855 10.8763 13.3103 11.2921C12.535 11.708 11.2763 11.708 10.4961 11.2922C9.71582 10.8763 9.71172 10.2033 10.487 9.78745C11.2622 9.37164 12.5208 9.37162 13.3011 9.78746Z" fill="#47A047"/>
<path d="M19.0285 11.5889C19.2434 11.7034 19.4102 11.8353 19.5303 11.9793C20.0526 12.6055 19.6891 13.4576 18.5354 14.0765C17.3796 14.6965 15.7891 14.8931 14.6169 14.6157C14.3471 14.5519 14.0995 14.463 13.8844 14.3484C13.6698 14.234 13.5031 14.1021 13.3832 13.9583C12.8622 13.3332 13.2247 12.4821 14.3804 11.8621C15.5341 11.2433 17.1265 11.0461 18.298 11.3225C18.5673 11.3861 18.8142 11.4746 19.0285 11.5889V11.5889Z" fill="#47A047"/>
<path d="M25.1973 14.9995C25.5364 15.1802 25.5409 15.4726 25.204 15.6534L21.5061 17.637C21.1692 17.8178 20.6223 17.8163 20.2832 17.6356L14.6172 14.616C15.7894 14.8933 17.38 14.6967 18.5357 14.0767C19.6894 13.4578 20.053 12.6058 19.5306 11.9795L25.1973 14.9995ZM20.5732 17.4181C20.716 17.4063 20.8614 17.3637 21.0038 17.2873C21.262 17.1488 21.3569 16.9805 21.0973 16.8421C20.976 16.7775 20.8412 16.7495 20.6955 16.7628C20.55 16.776 20.4074 16.8201 20.2677 16.895C20.0078 17.0344 19.9082 17.2013 20.1688 17.3402C20.2928 17.4063 20.4277 17.4313 20.5732 17.4181M19.6854 16.945C19.8282 16.9332 19.9736 16.8906 20.116 16.8142C20.2557 16.7393 20.335 16.6614 20.3592 16.5835C20.3835 16.5056 20.3336 16.4351 20.2095 16.369C20.0882 16.3043 19.9534 16.2764 19.8078 16.2896C19.6623 16.3028 19.5196 16.3469 19.3799 16.4219C19.2375 16.4982 19.1555 16.5747 19.134 16.6511C19.1098 16.7289 19.1597 16.8024 19.281 16.8671C19.405 16.9332 19.5399 16.9581 19.6854 16.945M23.7955 15.4065C23.9967 15.5138 24.321 15.5138 24.521 15.4065C24.7209 15.2993 24.7199 15.1258 24.5186 15.0186C24.3174 14.9113 23.993 14.9114 23.7931 15.0186C23.5931 15.1259 23.5942 15.2992 23.7955 15.4065M21.6587 14.2677C21.8572 14.3735 22.1815 14.3736 22.3815 14.2663C22.5814 14.159 22.5804 13.9856 22.3819 13.8798C22.1806 13.7726 21.8562 13.7726 21.6564 13.8798C21.4563 13.9871 21.4575 14.1605 21.6587 14.2677M22.7261 14.4499C22.5261 14.5572 22.5272 14.7306 22.7257 14.8364C22.927 14.9436 23.2512 14.9437 23.4512 14.8364C23.6511 14.7292 23.6501 14.5557 23.4489 14.4485C23.2504 14.3427 22.926 14.3427 22.7261 14.4499M18.7239 16.5585L19.6197 16.078L19.2916 15.9031L19.1574 15.9751L19.3394 16.0721L18.5777 16.4807L18.7239 16.5585Z" fill="#96D696"/>
<path d="M21.7696 12.0458L14.6888 15.8441L12.0195 14.4216L19.0982 10.6221L21.7696 12.0458Z" fill="#E3E7F0"/>
<path d="M18.8172 10.4727L11.7363 14.271L12.0192 14.4218L19.098 10.6223L18.8172 10.4727Z" fill="#ED5D71"/>
<path d="M22.0492 12.1946L21.7703 12.0459L14.6895 15.8444L14.973 15.9955L22.0492 12.1946Z" fill="#ED5D71"/>
<path d="M27.5168 16.678L20.436 20.4722L20.4355 20.3226L27.5164 16.5283L27.5168 16.678Z" fill="#5FAF5F"/>
<path d="M27.5169 16.3323L20.436 20.1265L20.4355 19.9771L27.5164 16.1826L27.5169 16.3323Z" fill="#5FAF5F"/>
<path d="M20.4316 18.9058L27.5125 15.1074L27.513 15.2934L20.4322 19.0877L20.4316 18.9058Z" fill="#5FAF5F"/>
<path d="M27.5206 18.0316L20.4398 21.8298L20.4395 21.7073L27.5203 17.9131L27.5206 18.0316Z" fill="#5FAF5F"/>
<path d="M27.5188 17.3702L20.438 21.1644L20.4375 21.015L27.5183 17.2207L27.5188 17.3702Z" fill="#5FAF5F"/>
<path d="M27.5207 17.7168L20.4399 21.5113L20.4395 21.3616L27.5203 17.5674L27.5207 17.7168Z" fill="#5FAF5F"/>
<path d="M27.5188 17.0245L20.438 20.8189L20.4375 20.6692L27.5183 16.875L27.5188 17.0245Z" fill="#5FAF5F"/>
<path d="M20.4336 19.2845L27.5145 15.4902L27.5149 15.6399L20.4341 19.434L20.4336 19.2845Z" fill="#5FAF5F"/>
<path d="M27.5144 15.8359L27.5149 15.9854L20.4341 19.7797L20.4336 19.6302L27.5144 15.8359Z" fill="#5FAF5F"/>
<path d="M8.54092 22.3749L4.52212 17.0645L4.52148 17.2721L8.54028 22.5826L8.54092 22.3749Z" fill="#47A047"/>
<path d="M8.54479 20.547L4.52603 15.2363L4.52539 15.4442L8.54415 20.7547L8.54479 20.547Z" fill="#47A047"/>
<path d="M8.54092 22.0095L4.52212 16.6992L4.52148 16.9069L8.54028 22.2173L8.54092 22.0095Z" fill="#47A047"/>
<path d="M8.54658 20.242L4.52782 14.9229L4.52734 15.0789L8.54614 20.3894L8.54658 20.242Z" fill="#47A047"/>
<path d="M8.54284 21.6445L4.52407 16.334L4.52344 16.5416L8.5422 21.8521L8.54284 21.6445Z" fill="#47A047"/>
<path d="M8.54287 21.2782L4.52407 15.9678L4.52344 16.1754L8.54223 21.4859L8.54287 21.2782Z" fill="#47A047"/>
<path d="M8.54482 20.913L4.52603 15.6025L4.52539 15.8104L8.54419 21.1207L8.54482 20.913Z" fill="#47A047"/>
<path d="M8.53893 22.7407L4.52017 17.4307L4.51953 17.6381L8.5383 22.9486L8.53893 22.7407Z" fill="#47A047"/>
<path d="M19.6809 24.1228L19.6793 24.6083C19.6793 24.2647 19.4349 23.9241 18.9461 23.6641C18.459 23.4042 17.8229 23.2757 17.1869 23.2757C16.5508 23.2742 15.9147 23.4042 15.4308 23.6641C14.9501 23.9225 14.709 24.2602 14.709 24.5978L14.7106 24.1108C14.7106 23.7717 14.9518 23.4355 15.4324 23.1771C15.9164 22.9171 16.5508 22.7871 17.1885 22.7871C17.8245 22.7886 18.4606 22.9171 18.9477 23.1771C19.4381 23.4385 19.6825 23.7807 19.6809 24.1228Z" fill="#EFA143"/>
<path d="M18.9471 23.3905C19.9205 23.9093 19.9256 24.7508 18.9585 25.2695C17.9904 25.7889 16.4166 25.7889 15.4432 25.2701C14.4687 24.7508 14.4636 23.9093 15.4317 23.39C16.3988 22.8712 17.9726 22.8712 18.9471 23.3905V23.3905Z" fill="#FFDD94"/>
<path d="M20.1763 24.1377L20.1747 24.5171C20.1735 24.9223 19.8851 25.327 19.309 25.636C18.1481 26.2588 16.2611 26.2582 15.0938 25.6361C14.5056 25.3226 14.2116 24.9112 14.2129 24.5005L14.2145 24.1211C14.2132 24.5318 14.5072 24.9432 15.0954 25.2567C16.2627 25.8788 18.1497 25.8794 19.3106 25.2567C19.8867 24.9476 20.1751 24.543 20.1763 24.1377V24.1377Z" fill="#EFA143"/>
<path d="M19.2971 23.0032C20.4645 23.6253 20.4706 24.6349 19.3109 25.257C18.15 25.8797 16.2631 25.8791 15.0958 25.257C13.9273 24.6343 13.9201 23.6254 15.0809 23.0026C16.2406 22.3805 18.1287 22.3805 19.2971 23.0032V23.0032ZM15.4439 25.0566C16.4173 25.5754 17.9911 25.5753 18.9593 25.056C19.9263 24.5372 19.9212 23.6958 18.9478 23.177C17.9734 22.6577 16.3996 22.6577 15.4325 23.1765C14.4643 23.6958 14.4695 24.5373 15.4439 25.0566V25.0566Z" fill="#FEBB61"/>
<path d="M16.8919 24.856L17.7605 24.389V24.5697L16.8919 25.0367L16.6915 24.9265L16.6771 24.5344C16.6724 24.455 16.6676 24.3978 16.6533 24.3537C16.6438 24.3142 16.6151 24.2834 16.5722 24.2612C16.5292 24.2393 16.4863 24.2305 16.429 24.2305C16.3765 24.2305 16.324 24.2393 16.2811 24.2612C16.2572 24.2746 16.2429 24.2877 16.2286 24.3053V24.4684L15.8802 24.5168C15.8563 24.4684 15.8516 24.4243 15.8516 24.3847V24.204C15.8516 24.2481 15.8611 24.292 15.8802 24.3361L16.2047 24.2965V24.1995C16.2047 24.1468 16.2333 24.1115 16.2811 24.0808C16.324 24.0586 16.3765 24.0498 16.429 24.0498C16.4863 24.0498 16.5292 24.0586 16.5722 24.0808C16.6151 24.107 16.6438 24.138 16.6581 24.1776C16.6676 24.2171 16.6724 24.2746 16.6771 24.3537L16.6915 24.7459L16.8919 24.856Z" fill="#EFA143"/>
<path d="M17.3398 23.7415V23.5611C17.3398 23.5258 17.3685 23.4905 17.4257 23.4598C17.5069 23.4157 17.6071 23.4025 17.7216 23.4245C17.8362 23.4421 17.9555 23.4862 18.0795 23.5523C18.2036 23.6183 18.2847 23.68 18.3181 23.7415C18.3325 23.7637 18.3373 23.7813 18.3373 23.799V23.9794C18.3373 23.9618 18.3325 23.9399 18.3181 23.9222C18.2847 23.8607 18.2036 23.799 18.0795 23.7329C17.9555 23.6667 17.8362 23.6228 17.7216 23.6052C17.6071 23.583 17.5069 23.5963 17.4257 23.6404C17.3685 23.6667 17.3398 23.702 17.3398 23.7415V23.7415Z" fill="#EFA143"/>
<path d="M18.6957 23.7725V23.9532C18.6957 24.0412 18.6241 24.1248 18.4809 24.1997C18.3091 24.2922 18.123 24.3274 17.9226 24.3143C17.7221 24.2967 17.5217 24.235 17.3308 24.1336C17.1351 24.028 17.0254 23.9222 16.992 23.8166C16.9872 23.799 16.9824 23.7813 16.9824 23.7637V23.583C16.9824 23.6006 16.9872 23.6183 16.992 23.6359C17.0254 23.7415 17.1351 23.8474 17.3308 23.9532C17.5217 24.0545 17.7221 24.116 17.9226 24.1336C18.1278 24.1513 18.3091 24.1117 18.4809 24.0192C18.6241 23.9444 18.6957 23.8607 18.6957 23.7725Z" fill="#EFA143"/>
<path d="M18.688 23.7239C18.7191 23.8311 18.6498 23.9301 18.4804 24.021C18.3107 24.112 18.1257 24.1494 17.9252 24.1331C17.7216 24.1152 17.5238 24.0551 17.3319 23.9529C17.1369 23.8489 17.0239 23.7434 16.9928 23.6362C16.9587 23.5274 17.028 23.4284 17.1976 23.3374C17.3671 23.2465 17.5521 23.2091 17.7557 23.227C17.9562 23.2432 18.154 23.3033 18.349 23.4073C18.5409 23.5096 18.6539 23.6151 18.688 23.7239V23.7239ZM17.9575 23.9366C18.0729 23.9561 18.1731 23.9447 18.2549 23.9008C18.3365 23.8571 18.3575 23.8034 18.3207 23.7417C18.2838 23.6801 18.2046 23.6183 18.0796 23.5517C17.9547 23.4852 17.8359 23.4414 17.7235 23.4234C17.608 23.404 17.5077 23.4154 17.4261 23.4592C17.3443 23.503 17.3234 23.5567 17.3603 23.6183C17.394 23.6784 17.4763 23.7418 17.6012 23.8084C17.7261 23.8749 17.8419 23.9171 17.9575 23.9366" fill="#FEBB61"/>
<path d="M17.7622 24.3894L16.8935 24.8554L16.6893 24.7466L16.6779 24.3553C16.6743 24.2757 16.668 24.2172 16.6555 24.175C16.6432 24.136 16.6157 24.1052 16.573 24.0824C16.5303 24.0597 16.4847 24.0484 16.43 24.0484C16.3753 24.0484 16.3238 24.0597 16.2814 24.0825C16.2057 24.1231 16.1848 24.1929 16.2279 24.2904L15.879 24.3374C15.8452 24.2578 15.8417 24.188 15.8625 24.1279C15.8865 24.0662 15.95 24.0061 16.0559 23.9493C16.1618 23.8925 16.2891 23.86 16.441 23.8535C16.5867 23.847 16.7205 23.873 16.8393 23.9363C16.9033 23.9704 16.9461 24.0126 16.9707 24.0613C16.9984 24.1084 17.0139 24.1815 17.0175 24.2774L17.0282 24.5193L17.5154 24.2579L17.7622 24.3894Z" fill="#FEBB61"/>
<path d="M15.3997 24.9158L15.398 25.4013C15.398 25.0576 15.1536 24.717 14.6649 24.4571C14.1777 24.1971 13.5417 24.0687 12.9056 24.0687C12.2695 24.0671 11.6335 24.1971 11.1496 24.4571C10.6689 24.7155 10.4277 25.0532 10.4277 25.3908L10.4293 24.9038C10.4293 24.5647 10.6705 24.2285 11.1512 23.9701C11.6351 23.7101 12.2695 23.5801 12.9072 23.5801C13.5433 23.5816 14.1793 23.7101 14.6665 23.9701C15.1569 24.2315 15.4013 24.5736 15.3997 24.9158V24.9158Z" fill="#EFA143"/>
<path d="M14.6658 24.1835C15.6392 24.7023 15.6443 25.5437 14.6773 26.0625C13.7091 26.5819 12.1353 26.5819 11.1619 26.0631C10.1875 25.5438 10.1824 24.7023 11.1505 24.183C12.1176 23.6642 13.6914 23.6642 14.6658 24.1835V24.1835Z" fill="#FFDD94"/>
<path d="M15.8951 24.9306L15.8935 25.31C15.8922 25.7153 15.6038 26.12 15.0277 26.429C13.8668 27.0517 11.9799 27.0512 10.8126 26.429C10.2243 26.1155 9.93038 25.7042 9.93164 25.2934L9.93325 24.9141C9.93198 25.3248 10.2259 25.7362 10.8142 26.0497C11.9815 26.6718 13.8684 26.6724 15.0293 26.0496C15.6054 25.7406 15.8938 25.3359 15.8951 24.9306Z" fill="#EFA143"/>
<path d="M15.0159 23.7962C16.1832 24.4183 16.1894 25.4278 15.0297 26.0499C13.8688 26.6727 11.9818 26.6721 10.8145 26.05C9.64609 25.4273 9.63881 24.4183 10.7997 23.7956C11.9594 23.1735 13.8475 23.1735 15.0159 23.7962V23.7962ZM11.1627 25.8496C12.1361 26.3683 13.7099 26.3683 14.678 25.849C15.6451 25.3302 15.6399 24.4887 14.6665 23.97C13.6921 23.4506 12.1183 23.4506 11.1512 23.9694C10.1831 24.4888 10.1882 25.3302 11.1627 25.8496V25.8496Z" fill="#FEBB61"/>
<path d="M12.9542 25.5359L13.2214 25.3948V25.5712L12.9542 25.7164L11.952 25.1791L11.7182 25.3069L11.4844 25.1791V25.0029L11.7182 25.1262L11.952 25.0029L12.9542 25.5359Z" fill="#EFA143"/>
<path d="M13.9985 25.171C13.8314 25.2635 13.6405 25.2987 13.4401 25.2854C13.2397 25.2678 13.044 25.2062 12.8484 25.1047C12.6527 24.9991 12.5382 24.8935 12.5095 24.7877C12.5047 24.77 12.5 24.7524 12.5 24.7348V24.5586C12.5 24.5717 12.5047 24.5894 12.5095 24.607C12.5382 24.7128 12.6527 24.8184 12.8484 24.9243C13.044 25.0256 13.2397 25.0873 13.4401 25.1047C13.6405 25.1181 13.8314 25.0828 13.9985 24.9946C14.1464 24.9154 14.2132 24.8318 14.2132 24.7436V24.9243C14.2132 25.0122 14.1464 25.0961 13.9985 25.171V25.171Z" fill="#EFA143"/>
<path d="M12.8594 24.7125V24.5363C12.8594 24.4965 12.8928 24.4612 12.9453 24.4305C13.0312 24.3864 13.1314 24.3733 13.2411 24.3952C13.3557 24.4128 13.4798 24.4569 13.5991 24.5187C13.7279 24.589 13.8043 24.6507 13.8425 24.7125C13.8568 24.7344 13.8615 24.752 13.8615 24.7697V24.9458C13.8615 24.9282 13.852 24.9108 13.8425 24.8931C13.8043 24.8314 13.7231 24.7654 13.5991 24.6991C13.4798 24.6331 13.3557 24.5935 13.2411 24.5714C13.1266 24.5537 13.0312 24.5671 12.9453 24.6111C12.888 24.6419 12.8594 24.6772 12.8594 24.7125Z" fill="#EFA143"/>
<path d="M14.2075 24.6929C14.2383 24.8002 14.1722 24.9008 13.9997 24.9933C13.8301 25.0843 13.642 25.1201 13.4415 25.1038C13.241 25.0876 13.0432 25.0275 12.8482 24.9236C12.6532 24.8196 12.5402 24.7141 12.5092 24.6069C12.4781 24.4998 12.5473 24.4007 12.717 24.3097C12.8894 24.2172 13.0744 24.1799 13.2751 24.196C13.4757 24.2123 13.6734 24.2724 13.8684 24.3763C14.0634 24.4802 14.1764 24.5858 14.2075 24.6929V24.6929ZM13.4768 24.9089C13.5923 24.9285 13.6894 24.9154 13.7712 24.8716C13.856 24.8261 13.8798 24.7742 13.8401 24.714C13.8032 24.6524 13.7238 24.5874 13.5989 24.5209C13.477 24.4559 13.3553 24.4137 13.2399 24.3941C13.1272 24.3731 13.0303 24.386 12.9455 24.4315C12.8637 24.4754 12.8397 24.5274 12.8766 24.589C12.9165 24.6491 12.9958 24.714 13.1177 24.779C13.2426 24.8456 13.3644 24.8878 13.4768 24.9089Z" fill="#FEBB61"/>
<path d="M13.2219 25.3943L12.9556 25.5372L11.9501 25.0013L11.717 25.1263L11.4824 25.0013L11.9818 24.7334L13.2219 25.3943Z" fill="#FEBB61"/>
</svg>
