<svg width="64" height="64" viewBox="0 0 64 64" fill="none" xmlns="http://www.w3.org/2000/svg">
<circle cx="32" cy="32" r="32" fill="#CBD3D8"/>
<circle cx="32" cy="32" r="22" fill="white"/>
<path d="M29.8687 30.8184V32.4443C29.8687 33.3184 29.7905 34.0557 29.6343 34.6562C29.478 35.2568 29.2534 35.7402 28.9604 36.1064C28.6675 36.4727 28.3135 36.7388 27.8984 36.9048C27.4883 37.0659 27.0244 37.1465 26.5068 37.1465C26.0967 37.1465 25.7183 37.0952 25.3716 36.9927C25.0249 36.8901 24.7124 36.7266 24.4341 36.502C24.1606 36.2725 23.9263 35.9746 23.731 35.6084C23.5356 35.2422 23.3867 34.7979 23.2842 34.2754C23.1816 33.7529 23.1304 33.1426 23.1304 32.4443V30.8184C23.1304 29.9443 23.2085 29.2119 23.3647 28.6211C23.5259 28.0303 23.7529 27.5566 24.0459 27.2002C24.3389 26.8389 24.6904 26.5801 25.1006 26.4238C25.5156 26.2676 25.9795 26.1895 26.4922 26.1895C26.9072 26.1895 27.2881 26.2407 27.6348 26.3433C27.9863 26.4409 28.2988 26.5996 28.5723 26.8193C28.8457 27.0342 29.0776 27.3223 29.2681 27.6836C29.4634 28.04 29.6123 28.4771 29.7148 28.9946C29.8174 29.5122 29.8687 30.1201 29.8687 30.8184ZM28.5063 32.6641V30.5913C28.5063 30.1128 28.4771 29.6929 28.4185 29.3315C28.3647 28.9653 28.2842 28.6528 28.1768 28.394C28.0693 28.1353 27.9326 27.9253 27.7666 27.7642C27.6055 27.603 27.4175 27.4858 27.2026 27.4126C26.9927 27.3345 26.7559 27.2954 26.4922 27.2954C26.1699 27.2954 25.8843 27.3564 25.6353 27.4785C25.3862 27.5957 25.1763 27.7837 25.0054 28.0425C24.8394 28.3013 24.7124 28.6406 24.6245 29.0605C24.5366 29.4805 24.4927 29.9907 24.4927 30.5913V32.6641C24.4927 33.1426 24.5195 33.5649 24.5732 33.9312C24.6318 34.2974 24.7173 34.6147 24.8296 34.8833C24.9419 35.147 25.0786 35.3643 25.2397 35.5352C25.4009 35.7061 25.5864 35.833 25.7964 35.916C26.0112 35.9941 26.248 36.0332 26.5068 36.0332C26.8389 36.0332 27.1294 35.9697 27.3784 35.8428C27.6274 35.7158 27.835 35.5181 28.001 35.2495C28.1719 34.9761 28.2988 34.627 28.3818 34.2021C28.4648 33.7725 28.5063 33.2598 28.5063 32.6641ZM31.4946 28.9507V28.3867C31.4946 27.9814 31.5825 27.6128 31.7583 27.2808C31.9341 26.9487 32.1855 26.6826 32.5127 26.4824C32.8398 26.2822 33.228 26.1821 33.6772 26.1821C34.1362 26.1821 34.5269 26.2822 34.8491 26.4824C35.1763 26.6826 35.4277 26.9487 35.6035 27.2808C35.7793 27.6128 35.8672 27.9814 35.8672 28.3867V28.9507C35.8672 29.3462 35.7793 29.71 35.6035 30.042C35.4326 30.374 35.1836 30.6401 34.8564 30.8403C34.5342 31.0405 34.146 31.1406 33.6919 31.1406C33.2378 31.1406 32.8447 31.0405 32.5127 30.8403C32.1855 30.6401 31.9341 30.374 31.7583 30.042C31.5825 29.71 31.4946 29.3462 31.4946 28.9507ZM32.5127 28.3867V28.9507C32.5127 29.1753 32.5542 29.3877 32.6372 29.5879C32.7251 29.7881 32.8569 29.9517 33.0327 30.0786C33.2085 30.2007 33.4282 30.2617 33.6919 30.2617C33.9556 30.2617 34.1729 30.2007 34.3438 30.0786C34.5146 29.9517 34.6416 29.7881 34.7246 29.5879C34.8076 29.3877 34.8491 29.1753 34.8491 28.9507V28.3867C34.8491 28.1572 34.8052 27.9424 34.7173 27.7422C34.6343 27.5371 34.5049 27.3735 34.3291 27.2515C34.1582 27.1245 33.9409 27.061 33.6772 27.061C33.4185 27.061 33.2012 27.1245 33.0254 27.2515C32.8545 27.3735 32.7251 27.5371 32.6372 27.7422C32.5542 27.9424 32.5127 28.1572 32.5127 28.3867ZM36.6875 34.9565V34.3853C36.6875 33.9849 36.7754 33.6187 36.9512 33.2866C37.127 32.9546 37.3784 32.6885 37.7056 32.4883C38.0327 32.2881 38.4209 32.188 38.8701 32.188C39.3291 32.188 39.7197 32.2881 40.042 32.4883C40.3691 32.6885 40.6206 32.9546 40.7964 33.2866C40.9722 33.6187 41.0601 33.9849 41.0601 34.3853V34.9565C41.0601 35.3569 40.9722 35.7231 40.7964 36.0552C40.6255 36.3872 40.3765 36.6533 40.0493 36.8535C39.7271 37.0537 39.3389 37.1538 38.8848 37.1538C38.4307 37.1538 38.04 37.0537 37.7129 36.8535C37.3857 36.6533 37.1318 36.3872 36.9512 36.0552C36.7754 35.7231 36.6875 35.3569 36.6875 34.9565ZM37.7056 34.3853V34.9565C37.7056 35.1812 37.7471 35.396 37.8301 35.6011C37.918 35.8013 38.0498 35.9648 38.2256 36.0918C38.4014 36.2139 38.6211 36.2749 38.8848 36.2749C39.1484 36.2749 39.3657 36.2139 39.5366 36.0918C39.7124 35.9648 39.8418 35.8013 39.9248 35.6011C40.0078 35.4009 40.0493 35.186 40.0493 34.9565V34.3853C40.0493 34.1558 40.0054 33.9409 39.9175 33.7407C39.8345 33.5405 39.7051 33.3794 39.5293 33.2573C39.3584 33.1304 39.1387 33.0669 38.8701 33.0669C38.6113 33.0669 38.394 33.1304 38.2183 33.2573C38.0474 33.3794 37.918 33.5405 37.8301 33.7407C37.7471 33.9409 37.7056 34.1558 37.7056 34.3853ZM39.207 27.8521L33.9995 36.187L33.2378 35.7036L38.4453 27.3687L39.207 27.8521Z" fill="#03211C"/>
</svg>
