<svg xmlns="http://www.w3.org/2000/svg" xmlns:xlink="http://www.w3.org/1999/xlink" version="1.1" width="256" height="256" viewBox="0 0 256 256" xml:space="preserve">

<defs>
</defs>
<g style="stroke: none; stroke-width: 0; stroke-dasharray: none; stroke-linecap: butt; stroke-linejoin: miter; stroke-miterlimit: 10; fill: none; fill-rule: nonzero; opacity: 1;" transform="translate(1.4065934065934016 1.4065934065934016) scale(2.81 2.81)" >
	<path d="M 18.596 37.203 c -4.97 0 -9.642 -1.935 -13.156 -5.45 c -7.254 -7.254 -7.254 -19.058 0 -26.312 c 7.253 -7.254 19.058 -7.255 26.312 0 c 7.254 7.254 7.254 19.058 0 26.312 l 0 0 l 0 0 C 28.239 35.267 23.567 37.203 18.596 37.203 z M 18.597 2.966 c -4.005 0 -8.009 1.524 -11.058 4.573 c -6.097 6.097 -6.097 16.018 0 22.115 c 2.954 2.954 6.88 4.58 11.058 4.58 c 4.178 0 8.104 -1.627 11.058 -4.58 l 0 0 c 6.097 -6.097 6.097 -16.018 0 -22.115 C 26.606 4.491 22.601 2.966 18.597 2.966 z" style="stroke: none; stroke-width: 1; stroke-dasharray: none; stroke-linecap: butt; stroke-linejoin: miter; stroke-miterlimit: 10; fill: rgb(0,0,0); fill-rule: nonzero; opacity: 1;" transform=" matrix(1 0 0 1 0 0) " stroke-linecap="round" />
	<path d="M 71.403 90 c -4.764 0 -9.529 -1.814 -13.156 -5.441 c -7.254 -7.255 -7.254 -19.058 0 -26.312 c 7.255 -7.255 19.058 -7.255 26.312 0 c 7.255 7.254 7.255 19.059 0 26.312 l 0 0 C 80.932 88.186 76.167 90 71.403 90 z M 71.403 55.772 c -4.004 0 -8.009 1.524 -11.058 4.573 c -6.097 6.097 -6.097 16.018 0 22.116 c 6.098 6.096 16.019 6.097 22.116 0 l 0 0 c 6.097 -6.097 6.097 -16.018 0 -22.116 C 79.412 57.297 75.407 55.772 71.403 55.772 z M 83.51 83.51 h 0.01 H 83.51 z" style="stroke: none; stroke-width: 1; stroke-dasharray: none; stroke-linecap: butt; stroke-linejoin: miter; stroke-miterlimit: 10; fill: rgb(0,0,0); fill-rule: nonzero; opacity: 1;" transform=" matrix(1 0 0 1 0 0) " stroke-linecap="round" />
	<path d="M 11.494 79.99 c -0.38 0 -0.759 -0.145 -1.049 -0.435 c -0.58 -0.58 -0.58 -1.519 0 -2.098 l 67.012 -67.013 c 0.58 -0.58 1.519 -0.58 2.098 0 c 0.58 0.579 0.58 1.519 0 2.098 L 12.543 79.556 C 12.253 79.845 11.873 79.99 11.494 79.99 z" style="stroke: none; stroke-width: 1; stroke-dasharray: none; stroke-linecap: butt; stroke-linejoin: miter; stroke-miterlimit: 10; fill: rgb(0,0,0); fill-rule: nonzero; opacity: 1;" transform=" matrix(1 0 0 1 0 0) " stroke-linecap="round" />
</g>
</svg>