<svg width="176" height="176" viewBox="0 0 176 176" fill="none" xmlns="http://www.w3.org/2000/svg">
<path d="M147.504 41.1936L41.1215 147.531C39.4486 149.182 37.1926 150.107 34.842 150.107C32.4914 150.107 30.2354 149.182 28.5624 147.531C27.736 146.708 27.0802 145.729 26.6328 144.652C26.1853 143.575 25.955 142.42 25.955 141.254C25.955 140.088 26.1853 138.933 26.6328 137.856C27.0802 136.779 27.736 135.801 28.5624 134.977L134.945 28.6399C136.611 26.9752 138.869 26.04 141.225 26.04C143.58 26.04 145.839 26.9752 147.504 28.6399C149.17 30.3046 150.105 32.5625 150.105 34.9168C150.105 37.271 149.17 39.5289 147.504 41.1936ZM28.7102 70.5841C23.8545 65.7458 20.828 59.3738 20.1467 52.5545C19.4654 45.7352 21.1715 38.8908 24.9741 33.1883C28.7767 27.4857 34.4404 23.2781 40.9996 21.2828C47.5587 19.2876 54.6071 19.6281 60.9431 22.2465C67.2791 24.8649 72.5104 29.5989 75.7451 35.6415C78.9797 41.684 80.0174 48.661 78.6813 55.3829C77.3451 62.1047 73.7179 68.1552 68.4179 72.5027C63.118 76.8503 56.4735 79.2257 49.6173 79.224C45.7355 79.227 41.8912 78.4656 38.3039 76.9831C34.7165 75.5007 31.4566 73.3262 28.7102 70.5841ZM37.7971 49.6858C37.7924 52.4196 38.7362 55.0704 40.4677 57.1865C42.1993 59.3026 44.6114 60.7531 47.2929 61.2907C49.9744 61.8282 52.7595 61.4197 55.1735 60.1347C57.5874 58.8497 59.4809 56.7677 60.5312 54.2436C61.5815 51.7194 61.7237 48.9093 60.9334 46.2921C60.1432 43.675 58.4695 41.4127 56.1975 39.8909C53.9255 38.369 51.1959 37.6818 48.4737 37.9463C45.7516 38.2107 43.2055 39.4106 41.2693 41.3413C40.1677 42.434 39.2938 43.734 38.6978 45.1663C38.1018 46.5985 37.7957 48.1346 37.7971 49.6858ZM156 126.485C155.995 133.319 153.619 139.939 149.278 145.218C144.937 150.497 138.899 154.108 132.193 155.437C125.487 156.765 118.528 155.728 112.501 152.502C106.474 149.277 101.752 144.062 99.1404 137.747C96.5284 131.432 96.1878 124.407 98.1765 117.869C100.165 111.331 104.36 105.685 110.047 101.892C115.733 98.0987 122.56 96.3938 129.363 97.0676C136.166 97.7414 142.525 100.752 147.356 105.587C150.1 108.332 152.275 111.591 153.758 115.176C155.241 118.762 156.003 122.605 156 126.485ZM138.27 126.485C138.271 124.934 137.965 123.398 137.369 121.965C136.773 120.533 135.899 119.233 134.797 118.141C132.87 116.229 130.34 115.043 127.637 114.786C124.934 114.529 122.225 115.215 119.971 116.729C117.718 118.243 116.058 120.49 115.276 123.089C114.493 125.688 114.635 128.478 115.677 130.984C116.72 133.49 118.599 135.557 120.995 136.834C123.391 138.112 126.155 138.52 128.818 137.99C131.481 137.459 133.878 136.023 135.601 133.926C137.324 131.829 138.267 129.199 138.27 126.485Z" fill="white"/>
</svg>
