<svg width="84" height="84" viewBox="0 0 84 84" fill="none" xmlns="http://www.w3.org/2000/svg">
<g clip-path="url(#clip0_1231_2449)">
<path d="M13.125 5.25C11.7326 5.25 10.3973 5.80312 9.41269 6.78769C8.42812 7.77226 7.875 9.10761 7.875 10.5V15.75C7.875 17.1424 8.42812 18.4777 9.41269 19.4623C10.3973 20.4469 11.7326 21 13.125 21H15.75V68.25C15.75 71.0348 16.8562 73.7055 18.8254 75.6746C20.7945 77.6438 23.4652 78.75 26.25 78.75H57.75C60.5348 78.75 63.2055 77.6438 65.1746 75.6746C67.1438 73.7055 68.25 71.0348 68.25 68.25V21H70.875C72.2674 21 73.6027 20.4469 74.5873 19.4623C75.5719 18.4777 76.125 17.1424 76.125 15.75V10.5C76.125 9.10761 75.5719 7.77226 74.5873 6.78769C73.6027 5.80312 72.2674 5.25 70.875 5.25H52.5C52.5 3.85761 51.9469 2.52226 50.9623 1.53769C49.9777 0.553124 48.6424 0 47.25 0L36.75 0C35.3576 0 34.0223 0.553124 33.0377 1.53769C32.0531 2.52226 31.5 3.85761 31.5 5.25H13.125ZM28.875 26.25C29.5712 26.25 30.2389 26.5266 30.7312 27.0188C31.2234 27.5111 31.5 28.1788 31.5 28.875V65.625C31.5 66.3212 31.2234 66.9889 30.7312 67.4812C30.2389 67.9734 29.5712 68.25 28.875 68.25C28.1788 68.25 27.5111 67.9734 27.0188 67.4812C26.5266 66.9889 26.25 66.3212 26.25 65.625V28.875C26.25 28.1788 26.5266 27.5111 27.0188 27.0188C27.5111 26.5266 28.1788 26.25 28.875 26.25V26.25ZM42 26.25C42.6962 26.25 43.3639 26.5266 43.8562 27.0188C44.3484 27.5111 44.625 28.1788 44.625 28.875V65.625C44.625 66.3212 44.3484 66.9889 43.8562 67.4812C43.3639 67.9734 42.6962 68.25 42 68.25C41.3038 68.25 40.6361 67.9734 40.1438 67.4812C39.6516 66.9889 39.375 66.3212 39.375 65.625V28.875C39.375 28.1788 39.6516 27.5111 40.1438 27.0188C40.6361 26.5266 41.3038 26.25 42 26.25V26.25ZM57.75 28.875V65.625C57.75 66.3212 57.4734 66.9889 56.9812 67.4812C56.4889 67.9734 55.8212 68.25 55.125 68.25C54.4288 68.25 53.7611 67.9734 53.2688 67.4812C52.7766 66.9889 52.5 66.3212 52.5 65.625V28.875C52.5 28.1788 52.7766 27.5111 53.2688 27.0188C53.7611 26.5266 54.4288 26.25 55.125 26.25C55.8212 26.25 56.4889 26.5266 56.9812 27.0188C57.4734 27.5111 57.75 28.1788 57.75 28.875V28.875Z" fill="#F43C3C"/>
</g>
<defs>
<clipPath id="clip0_1231_2449">
<rect width="84" height="84" fill="white"/>
</clipPath>
</defs>
</svg>
