<svg width="64" height="64" viewBox="0 0 64 64" fill="none" xmlns="http://www.w3.org/2000/svg">
<circle cx="32" cy="32" r="32" fill="#CBD3D8"/>
<path d="M32 0C37.0819 6.06014e-08 42.0908 1.21036 46.612 3.53089C51.1332 5.85143 55.0367 9.2154 57.9994 13.3444C60.9621 17.4733 62.8988 22.2486 63.6492 27.2748C64.3996 32.301 63.9422 37.4337 62.3147 42.248C60.6872 47.0623 57.9365 51.4197 54.2903 54.9596C50.644 58.4995 46.2071 61.1201 41.3468 62.6045C36.4865 64.0889 31.3426 64.3943 26.3407 63.4956C21.3389 62.5968 16.623 60.5197 12.5835 57.4362L32 32L32 0Z" fill="#D1780D"/>
<circle cx="32" cy="32" r="22" fill="white"/>
<path d="M24.1558 26.3213H24.2729V27.4712H24.1558C23.438 27.4712 22.8374 27.5884 22.354 27.8228C21.8706 28.0522 21.4873 28.3623 21.2041 28.7529C20.9209 29.1387 20.7158 29.5732 20.5889 30.0566C20.4668 30.54 20.4058 31.0308 20.4058 31.5288V33.0962C20.4058 33.5698 20.4619 33.9897 20.5742 34.356C20.6865 34.7173 20.8403 35.0225 21.0356 35.2715C21.231 35.5205 21.4507 35.7085 21.6948 35.8354C21.9438 35.9624 22.2026 36.0259 22.4712 36.0259C22.7837 36.0259 23.062 35.9673 23.3062 35.8501C23.5503 35.728 23.7554 35.5596 23.9214 35.3447C24.0923 35.125 24.2217 34.8662 24.3096 34.5684C24.3975 34.2705 24.4414 33.9434 24.4414 33.5869C24.4414 33.2695 24.4023 32.9644 24.3242 32.6714C24.2461 32.3735 24.1265 32.1099 23.9653 31.8804C23.8042 31.646 23.6016 31.4629 23.3574 31.3311C23.1182 31.1943 22.8325 31.126 22.5005 31.126C22.1245 31.126 21.7729 31.2188 21.4458 31.4043C21.1235 31.585 20.8574 31.8242 20.6475 32.1221C20.4424 32.415 20.3252 32.7349 20.2959 33.0815L19.5781 33.0742C19.6465 32.5273 19.7734 32.061 19.959 31.6753C20.1494 31.2847 20.3838 30.9673 20.6621 30.7231C20.9453 30.4741 21.2603 30.2935 21.6069 30.1812C21.9585 30.064 22.3296 30.0054 22.7202 30.0054C23.2524 30.0054 23.7114 30.1055 24.0972 30.3057C24.4829 30.5059 24.8003 30.7744 25.0493 31.1113C25.2983 31.4434 25.4814 31.8193 25.5986 32.2393C25.7207 32.6543 25.7817 33.0815 25.7817 33.521C25.7817 34.0239 25.7109 34.4951 25.5693 34.9346C25.4277 35.374 25.2153 35.7598 24.9321 36.0918C24.6538 36.4238 24.3096 36.6826 23.8994 36.8682C23.4893 37.0537 23.0132 37.1465 22.4712 37.1465C21.895 37.1465 21.3921 37.0293 20.9624 36.7949C20.5327 36.5557 20.1763 36.2383 19.8931 35.8428C19.6099 35.4473 19.3975 35.0078 19.2559 34.5244C19.1143 34.041 19.0435 33.5503 19.0435 33.0522V32.415C19.0435 31.6631 19.1191 30.9258 19.2705 30.2031C19.4219 29.4805 19.6831 28.8262 20.0542 28.2402C20.4302 27.6543 20.9502 27.188 21.6143 26.8413C22.2783 26.4946 23.1255 26.3213 24.1558 26.3213ZM34.0874 30.8184V32.4443C34.0874 33.3184 34.0093 34.0557 33.853 34.6562C33.6968 35.2568 33.4722 35.7402 33.1792 36.1064C32.8862 36.4727 32.5322 36.7388 32.1172 36.9048C31.707 37.0659 31.2432 37.1465 30.7256 37.1465C30.3154 37.1465 29.937 37.0952 29.5903 36.9927C29.2437 36.8901 28.9312 36.7266 28.6528 36.502C28.3794 36.2725 28.145 35.9746 27.9497 35.6084C27.7544 35.2422 27.6055 34.7979 27.5029 34.2754C27.4004 33.7529 27.3491 33.1426 27.3491 32.4443V30.8184C27.3491 29.9443 27.4272 29.2119 27.5835 28.6211C27.7446 28.0303 27.9717 27.5566 28.2646 27.2002C28.5576 26.8389 28.9092 26.5801 29.3193 26.4238C29.7344 26.2676 30.1982 26.1895 30.7109 26.1895C31.126 26.1895 31.5068 26.2407 31.8535 26.3433C32.2051 26.4409 32.5176 26.5996 32.791 26.8193C33.0645 27.0342 33.2964 27.3223 33.4868 27.6836C33.6821 28.04 33.8311 28.4771 33.9336 28.9946C34.0361 29.5122 34.0874 30.1201 34.0874 30.8184ZM32.7251 32.6641V30.5913C32.7251 30.1128 32.6958 29.6929 32.6372 29.3315C32.5835 28.9653 32.5029 28.6528 32.3955 28.394C32.2881 28.1353 32.1514 27.9253 31.9854 27.7642C31.8242 27.603 31.6362 27.4858 31.4214 27.4126C31.2114 27.3345 30.9746 27.2954 30.7109 27.2954C30.3887 27.2954 30.103 27.3564 29.854 27.4785C29.605 27.5957 29.395 27.7837 29.2241 28.0425C29.0581 28.3013 28.9312 28.6406 28.8433 29.0605C28.7554 29.4805 28.7114 29.9907 28.7114 30.5913V32.6641C28.7114 33.1426 28.7383 33.5649 28.792 33.9312C28.8506 34.2974 28.936 34.6147 29.0483 34.8833C29.1606 35.147 29.2974 35.3643 29.4585 35.5352C29.6196 35.7061 29.8052 35.833 30.0151 35.916C30.23 35.9941 30.4668 36.0332 30.7256 36.0332C31.0576 36.0332 31.3481 35.9697 31.5972 35.8428C31.8462 35.7158 32.0537 35.5181 32.2197 35.2495C32.3906 34.9761 32.5176 34.627 32.6006 34.2021C32.6836 33.7725 32.7251 33.2598 32.7251 32.6641ZM35.7134 28.9507V28.3867C35.7134 27.9814 35.8013 27.6128 35.9771 27.2808C36.1528 26.9487 36.4043 26.6826 36.7314 26.4824C37.0586 26.2822 37.4468 26.1821 37.896 26.1821C38.355 26.1821 38.7456 26.2822 39.0679 26.4824C39.395 26.6826 39.6465 26.9487 39.8223 27.2808C39.998 27.6128 40.0859 27.9814 40.0859 28.3867V28.9507C40.0859 29.3462 39.998 29.71 39.8223 30.042C39.6514 30.374 39.4023 30.6401 39.0752 30.8403C38.7529 31.0405 38.3647 31.1406 37.9106 31.1406C37.4565 31.1406 37.0635 31.0405 36.7314 30.8403C36.4043 30.6401 36.1528 30.374 35.9771 30.042C35.8013 29.71 35.7134 29.3462 35.7134 28.9507ZM36.7314 28.3867V28.9507C36.7314 29.1753 36.7729 29.3877 36.856 29.5879C36.9438 29.7881 37.0757 29.9517 37.2515 30.0786C37.4272 30.2007 37.647 30.2617 37.9106 30.2617C38.1743 30.2617 38.3916 30.2007 38.5625 30.0786C38.7334 29.9517 38.8604 29.7881 38.9434 29.5879C39.0264 29.3877 39.0679 29.1753 39.0679 28.9507V28.3867C39.0679 28.1572 39.0239 27.9424 38.936 27.7422C38.853 27.5371 38.7236 27.3735 38.5479 27.2515C38.377 27.1245 38.1597 27.061 37.896 27.061C37.6372 27.061 37.4199 27.1245 37.2441 27.2515C37.0732 27.3735 36.9438 27.5371 36.856 27.7422C36.7729 27.9424 36.7314 28.1572 36.7314 28.3867ZM40.9062 34.9565V34.3853C40.9062 33.9849 40.9941 33.6187 41.1699 33.2866C41.3457 32.9546 41.5972 32.6885 41.9243 32.4883C42.2515 32.2881 42.6396 32.188 43.0889 32.188C43.5479 32.188 43.9385 32.2881 44.2607 32.4883C44.5879 32.6885 44.8394 32.9546 45.0151 33.2866C45.1909 33.6187 45.2788 33.9849 45.2788 34.3853V34.9565C45.2788 35.3569 45.1909 35.7231 45.0151 36.0552C44.8442 36.3872 44.5952 36.6533 44.2681 36.8535C43.9458 37.0537 43.5576 37.1538 43.1035 37.1538C42.6494 37.1538 42.2588 37.0537 41.9316 36.8535C41.6045 36.6533 41.3506 36.3872 41.1699 36.0552C40.9941 35.7231 40.9062 35.3569 40.9062 34.9565ZM41.9243 34.3853V34.9565C41.9243 35.1812 41.9658 35.396 42.0488 35.6011C42.1367 35.8013 42.2686 35.9648 42.4443 36.0918C42.6201 36.2139 42.8398 36.2749 43.1035 36.2749C43.3672 36.2749 43.5845 36.2139 43.7554 36.0918C43.9312 35.9648 44.0605 35.8013 44.1436 35.6011C44.2266 35.4009 44.2681 35.186 44.2681 34.9565V34.3853C44.2681 34.1558 44.2241 33.9409 44.1362 33.7407C44.0532 33.5405 43.9238 33.3794 43.748 33.2573C43.5771 33.1304 43.3574 33.0669 43.0889 33.0669C42.8301 33.0669 42.6128 33.1304 42.437 33.2573C42.2661 33.3794 42.1367 33.5405 42.0488 33.7407C41.9658 33.9409 41.9243 34.1558 41.9243 34.3853ZM43.4258 27.8521L38.2183 36.187L37.4565 35.7036L42.6641 27.3687L43.4258 27.8521Z" fill="#D1780D"/>
</svg>
