<svg width="93" height="93" viewBox="0 0 93 93" fill="none" xmlns="http://www.w3.org/2000/svg">
<path d="M51.7198 12.3464C53.5791 14.3666 56.4372 15.1324 59.0575 14.3124C63.0174 13.0733 67.1907 15.4827 68.0977 19.5316C68.6976 22.2108 70.7899 24.3031 73.4693 24.9033C77.5182 25.81 79.9276 29.9835 78.6885 33.9434C77.8686 36.5637 78.6343 39.4218 80.6545 41.2811C83.7077 44.0909 83.7077 48.9099 80.6545 51.7197C78.6343 53.5789 77.8686 56.437 78.6885 59.0574C79.9276 63.0173 77.5182 67.1906 73.4693 68.0975C70.7901 68.6975 68.6978 70.7898 68.0977 73.4691C67.1909 77.518 63.0174 79.9275 59.0575 78.6883C56.4372 77.8684 53.5791 78.6342 51.7198 80.6544C48.9101 83.7076 44.091 83.7076 41.2812 80.6544C39.422 78.6342 36.5639 77.8684 33.9436 78.6883C29.9836 79.9275 25.8103 77.518 24.9034 73.4691C24.3034 70.7899 22.2111 68.6977 19.5318 68.0975C15.4829 67.1908 13.0733 63.0173 14.3126 59.0574C15.1325 56.437 14.3667 53.5789 12.3465 51.7197C9.29335 48.9099 9.29335 44.0909 12.3465 41.2811C14.3667 39.4218 15.1325 36.5637 14.3126 33.9434C13.0734 29.9835 15.4829 25.8102 19.5318 24.9033C22.211 24.3033 24.3033 22.211 24.9034 19.5316C25.8101 15.4827 29.9836 13.0731 33.9436 14.3124C36.5639 15.1324 39.422 14.3666 41.2812 12.3464C44.091 9.29339 48.9101 9.29339 51.7198 12.3464V12.3464Z" fill="#F07281"/>
<path d="M80.6539 41.2808C78.6337 39.4215 77.8677 36.5635 78.6878 33.9431C79.9269 29.9832 77.5175 25.8099 73.4686 24.903C70.7894 24.303 68.6971 22.2107 68.097 19.5314C67.2304 15.6625 63.3815 13.293 59.5859 14.1708C62.144 14.7668 64.2871 16.7661 64.9063 19.5314C65.5065 22.2105 67.5988 24.3028 70.2779 24.903C74.3268 25.8097 76.7365 29.9832 75.4971 33.9431C74.6772 36.5635 75.443 39.4215 77.4632 41.2808C80.5164 44.0906 80.5164 48.9096 77.4632 51.7194C75.443 53.5787 74.6772 56.4367 75.4971 59.0571C76.7363 63.017 74.3268 67.1903 70.2779 68.0972C67.5988 68.6972 65.5065 70.7895 64.9063 73.4688C64.2869 76.2341 62.1438 78.2336 59.5859 78.8294C63.3815 79.7072 67.2304 77.3377 68.097 73.4688C68.6969 70.7897 70.7892 68.6974 73.4686 68.0972C77.5175 67.1905 79.9271 63.017 78.6878 59.0571C77.8679 56.4367 78.6337 53.5787 80.6539 51.7194C83.7069 48.9096 83.7069 44.0906 80.6539 41.2808V41.2808Z" fill="#EB5569"/>
<path d="M46.4998 74.9352C62.2043 74.9352 74.9352 62.2043 74.9352 46.4998C74.9352 30.7954 62.2043 18.0645 46.4998 18.0645C30.7954 18.0645 18.0645 30.7954 18.0645 46.4998C18.0645 62.2043 30.7954 74.9352 46.4998 74.9352Z" fill="#FFD15B"/>
<path d="M46.4996 18.0645C45.7796 18.0645 45.066 18.0917 44.3594 18.1444C59.0641 19.2386 70.6547 31.5155 70.6547 46.4998C70.6547 61.4841 59.0643 73.7613 44.3596 74.8555C45.0661 74.908 45.7798 74.9354 46.4998 74.9354C62.2043 74.9354 74.9352 62.2043 74.9352 46.5C74.9352 30.7957 62.2041 18.0645 46.4996 18.0645V18.0645Z" fill="#FEB137"/>
<path d="M61.3544 53.3045L55.7127 47.5564C55.1404 46.9732 55.1404 46.0277 55.7127 45.4444L61.3544 39.6963C62.4725 38.5571 62.4725 36.71 61.3544 35.5708L57.517 31.661C56.3989 30.5218 54.586 30.5218 53.4679 31.661L47.8263 37.4091C47.2539 37.9923 46.3259 37.9923 45.7534 37.4091L40.1118 31.661C38.9937 30.5218 37.1808 30.5218 36.0627 31.661L32.2253 35.5708C31.1072 36.71 31.1072 38.5571 32.2253 39.6963L37.8669 45.4444C38.4393 46.0276 38.4393 46.9731 37.8669 47.5564L32.2253 53.3045C31.1072 54.4437 31.1072 56.2908 32.2253 57.4299L36.0627 61.3398C37.1808 62.4789 38.9937 62.4789 40.1118 61.3398L45.7534 55.5917C46.3258 55.0085 47.2538 55.0085 47.8263 55.5917L53.4679 61.3398C54.586 62.4789 56.3989 62.4789 57.517 61.3398L61.3544 57.4299C62.4725 56.2908 62.4725 54.4438 61.3544 53.3045Z" fill="#EAF6FF"/>
<path d="M37.3348 33.5429L43.2379 39.7234C43.811 40.2966 44.7403 40.2966 45.3135 39.7234L46.7704 37.989C46.3948 37.989 46.0192 37.8456 45.7326 37.5591L40.0835 31.91C38.964 30.7904 37.1487 30.7904 36.0291 31.91L35.2324 32.7067C35.9909 32.687 36.7558 32.9639 37.3348 33.5429V33.5429Z" fill="#FFDFCF"/>
<path d="M43.0689 53.4884L37.0535 59.7814C36.6217 60.2132 36.0862 60.4765 35.5273 60.5753L36.0286 61.0766C37.1481 62.1961 38.9634 62.1961 40.083 61.0766L45.7321 55.4275C46.0186 55.1409 46.3942 54.9976 46.7698 54.9976L45.1444 53.4884C44.5713 52.9153 43.6421 52.9153 43.0689 53.4884Z" fill="#FFDFCF"/>
<path d="M55.7048 47.5314C55.1317 46.9583 55.1317 46.0291 55.7048 45.456L61.3539 39.8069C62.4735 38.6873 62.4735 36.872 61.3539 35.7525L57.5114 31.91C56.3919 30.7904 54.5766 30.7904 53.457 31.91L52.3254 33.0416C53.235 32.8582 54.2161 33.1183 54.9215 33.8237L57.0301 35.7523C58.1497 36.8719 58.1497 38.6872 57.0301 39.8067L51.381 45.4558C50.8079 46.0289 50.8079 46.9582 51.381 47.5313L57.0301 53.1804C58.1497 54.3 58.1497 56.1152 57.0301 57.2348L55.0901 59.1078C54.305 59.8929 53.1787 60.1253 52.1892 59.8093L53.457 61.0773C54.5766 62.1968 56.3919 62.1968 57.5114 61.0773L61.3539 57.2348C62.4735 56.1152 62.4735 54.3 61.3539 53.1804L55.7048 47.5314Z" fill="#FFDFCF"/>
</svg>
