<svg width="125" height="93" viewBox="0 0 125 93" fill="none" xmlns="http://www.w3.org/2000/svg">
<path d="M50.8911 15.524C52.5774 17.3563 55.1696 18.0508 57.5462 17.3072C61.1377 16.1833 64.9228 18.3686 65.7454 22.0409C66.2895 24.4708 68.1872 26.3685 70.6173 26.9128C74.2896 27.7352 76.4749 31.5205 75.351 35.112C74.6074 37.4886 75.3019 40.0808 77.1342 41.7671C79.9033 44.3155 79.9033 48.6863 77.1342 51.2347C75.3019 52.921 74.6074 55.5132 75.351 57.8898C76.4749 61.4813 74.2896 65.2665 70.6173 66.089C68.1874 66.6332 66.2897 68.5308 65.7454 70.9609C64.923 74.6332 61.1377 76.8185 57.5462 75.6946C55.1696 74.951 52.5774 75.6455 50.8911 77.4778C48.3427 80.247 43.9719 80.247 41.4235 77.4778C39.7372 75.6455 37.145 74.951 34.7684 75.6946C31.1769 76.8185 27.3917 74.6332 26.5692 70.9609C26.025 68.531 24.1274 66.6333 21.6973 66.089C18.025 65.2666 15.8395 61.4813 16.9636 57.8898C17.7072 55.5132 17.0126 52.921 15.1804 51.2347C12.4112 48.6863 12.4112 44.3155 15.1804 41.7671C17.0126 40.0808 17.7072 37.4886 16.9636 35.112C15.8397 31.5205 18.025 27.7354 21.6973 26.9128C24.1272 26.3687 26.0249 24.471 26.5692 22.0409C27.3916 18.3686 31.1769 16.1831 34.7684 17.3072C37.145 18.0508 39.7372 17.3563 41.4235 15.524C43.9719 12.755 48.3427 12.755 50.8911 15.524V15.524Z" fill="#009981"/>
<path d="M77.1316 41.7674C75.2993 40.0811 74.6046 37.4888 75.3484 35.1123C76.4723 31.5207 74.287 27.7356 70.6147 26.913C68.1847 26.3689 66.2871 24.4712 65.7428 22.0411C64.9568 18.5321 61.4659 16.383 58.0234 17.1792C60.3435 17.7198 62.2873 19.5331 62.8489 22.0411C63.3932 24.4711 65.2909 26.3687 67.7208 26.913C71.3931 27.7354 73.5786 31.5207 72.4545 35.1123C71.7109 37.4888 72.4054 40.0811 74.2377 41.7674C77.0069 44.3158 77.0069 48.6865 74.2377 51.2349C72.4054 52.9212 71.7109 55.5135 72.4545 57.89C73.5784 61.4816 71.3931 65.2667 67.7208 66.0892C65.2909 66.6334 63.3932 68.5311 62.8489 70.9612C62.2871 73.4692 60.3433 75.2827 58.0234 75.823C61.4659 76.6192 64.9568 74.4702 65.7428 70.9612C66.2869 68.5312 68.1846 66.6336 70.6147 66.0892C74.287 65.2669 76.4724 61.4816 75.3484 57.89C74.6047 55.5135 75.2993 52.9212 77.1316 51.2349C79.9006 48.6865 79.9006 44.3158 77.1316 41.7674V41.7674Z" fill="#00483D"/>
<path d="M46.1555 72.2914C60.399 72.2914 71.9457 60.7447 71.9457 46.5012C71.9457 32.2576 60.399 20.7109 46.1555 20.7109C31.9119 20.7109 20.3652 32.2576 20.3652 46.5012C20.3652 60.7447 31.9119 72.2914 46.1555 72.2914Z" fill="#FFD15B"/>
<path d="M46.158 20.7109C45.5049 20.7109 44.8576 20.7356 44.2168 20.7834C57.5537 21.7758 68.066 32.9108 68.066 46.5012C68.066 60.0916 57.5538 71.2267 44.217 72.2191C44.8578 72.2667 45.5051 72.2916 46.1581 72.2916C60.4017 72.2916 71.9484 60.7448 71.9484 46.5013C71.9484 32.2579 60.4016 20.7109 46.158 20.7109V20.7109Z" fill="#FEB137"/>
<path d="M41.1519 46.772L36.9297 42.5498C35.9174 41.5374 34.276 41.5374 33.2639 42.5498L29.8237 45.9899C28.8114 47.0023 28.8114 48.6436 29.8237 49.6558L38.3201 58.1522L39.2405 58.7093L43.1609 58.5528L61.5903 39.9775L59.5648 36.2822L55.4675 34.7051L54.8517 35.1654L43.2453 46.7718C42.667 47.3499 41.73 47.3499 41.1519 46.772V46.772Z" fill="#EAF6FF"/>
<path d="M63.2953 37.5588L60.109 34.3725C59.0967 33.3602 57.4553 33.3602 56.4432 34.3725L55.6603 35.1554C56.4118 35.076 57.1912 35.3231 57.7674 35.899L59.4131 37.5588C60.4255 38.5712 60.4255 40.2125 59.4131 41.2247L43.7303 56.9546C42.4844 58.2005 40.7104 58.5959 39.1289 58.142L39.4462 58.4593C41.2729 60.286 44.2343 60.286 46.0609 58.4593L63.2954 41.2248C64.3076 40.2125 64.3076 38.5712 63.2953 37.5588V37.5588Z" fill="#CDF0EB"/>
<path d="M76.4172 17.132C76.101 17.132 75.7847 17.0114 75.5435 16.7701C75.061 16.2875 75.061 15.5052 75.5435 15.0228L85.8783 4.68807C86.3608 4.20554 87.1432 4.20554 87.6255 4.68807C88.1081 5.17061 88.1081 5.95298 87.6255 6.43535L77.2908 16.7701C77.0496 17.0112 76.7333 17.132 76.4172 17.132Z" fill="#FEB137"/>
<path d="M81.5867 24.5963C81.0434 24.5963 80.5453 24.2352 80.3954 23.6856C80.2159 23.0273 80.6038 22.3479 81.2622 22.1685L86.4295 20.7588C87.0882 20.579 87.7672 20.9672 87.9466 21.6255C88.1262 22.2838 87.7382 22.9632 87.0799 23.1426L81.9126 24.5523C81.8038 24.5821 81.6943 24.5963 81.5867 24.5963V24.5963Z" fill="#FFD15B"/>
<path d="M68.848 11.9654C68.7403 11.9654 68.631 11.9512 68.522 11.9214C67.8637 11.7418 67.4755 11.0626 67.6553 10.4043L69.065 5.23693C69.2445 4.57861 69.9239 4.19015 70.5821 4.37021C71.2404 4.54978 71.6285 5.22902 71.4488 5.88734L70.0391 11.0547C69.8893 11.6041 69.3913 11.9654 68.848 11.9654V11.9654Z" fill="#FFD15B"/>
<path d="M15.9023 17.132C15.5861 17.132 15.2698 17.0114 15.0286 16.7701L4.69393 6.43535C4.2114 5.95281 4.2114 5.17044 4.69393 4.68807C5.17647 4.20554 5.95884 4.20554 6.44121 4.68807L16.7759 15.0228C17.2585 15.5053 17.2585 16.2877 16.7759 16.7701C16.5347 17.0112 16.2184 17.132 15.9023 17.132Z" fill="#FEB137"/>
<path d="M10.7341 24.5964C10.6264 24.5964 10.5171 24.5823 10.4081 24.5524L5.24072 23.1427C4.5824 22.9632 4.19427 22.2839 4.374 21.6256C4.55357 20.9673 5.23281 20.5788 5.89113 20.7589L11.0585 22.1686C11.7168 22.3482 12.1049 23.0274 11.9252 23.6857C11.7755 24.2353 11.2774 24.5964 10.7341 24.5964V24.5964Z" fill="#FFD15B"/>
<path d="M23.471 11.9653C22.9277 11.9653 22.4297 11.604 22.2798 11.0546L20.87 5.88727C20.6905 5.22895 21.0784 4.54955 21.7368 4.37014C22.3957 4.19024 23.0745 4.57871 23.2539 5.23686L24.6636 10.4042C24.8432 11.0625 24.4552 11.7419 23.7969 11.9213C23.688 11.9512 23.5786 11.9653 23.471 11.9653V11.9653Z" fill="#FFD15B"/>
<path d="M86.7519 88.675C86.4357 88.675 86.1194 88.5544 85.8783 88.313L75.5435 77.9783C75.061 77.4958 75.061 76.7134 75.5435 76.231C76.0261 75.7485 76.8084 75.7485 77.2908 76.231L87.6255 86.5658C88.1081 87.0483 88.1081 87.8307 87.6255 88.313C87.3843 88.5542 87.068 88.675 86.7519 88.675Z" fill="#FEB137"/>
<path d="M86.7556 72.2878C86.6479 72.2878 86.5386 72.2736 86.4296 72.2438L81.2622 70.8341C80.6039 70.6545 80.2158 69.9753 80.3955 69.317C80.5752 68.6586 81.2541 68.2703 81.9126 68.4502L87.08 69.8599C87.7383 70.0395 88.1264 70.7188 87.9467 71.3771C87.7971 71.9265 87.2991 72.2878 86.7556 72.2878Z" fill="#FFD15B"/>
<path d="M70.2562 88.6762C69.7129 88.6762 69.2148 88.3149 69.0649 87.7655L67.6552 82.5981C67.4756 81.9398 67.8636 81.2604 68.5219 81.081C69.1804 80.9013 69.8596 81.2896 70.039 81.9477L71.4488 87.1151C71.6283 87.7734 71.2404 88.4528 70.582 88.6322C70.4733 88.662 70.3639 88.6762 70.2562 88.6762Z" fill="#FFD15B"/>
<path d="M5.56562 88.675C5.24947 88.675 4.93316 88.5544 4.69198 88.313C4.20944 87.8305 4.20944 87.0481 4.69198 86.5658L15.0267 76.231C15.5092 75.7485 16.2916 75.7485 16.774 76.231C17.2565 76.7136 17.2565 77.4959 16.774 77.9783L6.43925 88.313C6.19807 88.5542 5.88176 88.675 5.56562 88.675V88.675Z" fill="#FEB137"/>
<path d="M5.56521 72.2878C5.02188 72.2878 4.52386 71.9267 4.37395 71.3771C4.19438 70.7187 4.58235 70.0393 5.24066 69.8599L10.408 68.4502C11.0667 68.2703 11.7457 68.6588 11.9251 69.3169C12.1047 69.9753 11.7167 70.6547 11.0584 70.8341L5.89107 72.2438C5.78234 72.2736 5.67295 72.2878 5.56521 72.2878V72.2878Z" fill="#FFD15B"/>
<path d="M22.0628 88.6762C21.9551 88.6762 21.8459 88.6621 21.7368 88.6322C21.0785 88.4527 20.6904 87.7734 20.8701 87.1151L22.2798 81.9478C22.4594 81.2894 23.1386 80.9013 23.7969 81.081C24.4553 81.2606 24.8434 81.9398 24.6637 82.5982L23.2539 87.7655C23.1044 88.3149 22.6063 88.6762 22.0628 88.6762Z" fill="#FFD15B"/>
</svg>
